<?xml version="1.0" standalone="no"?>
<!DOCTYPE svg PUBLIC "-//W3C//DTD SVG 1.1//EN" "http://www.w3.org/Graphics/SVG/1.1/DTD/svg11.dtd" >
<svg xmlns="http://www.w3.org/2000/svg">
<metadata>Generated by IcoMoon</metadata>
<defs>
<font id="icomoon" horiz-adv-x="1024">
<font-face units-per-em="1024" ascent="960" descent="-64" />
<missing-glyph horiz-adv-x="1024" />
<glyph unicode="&#x20;" horiz-adv-x="512" d="" />
<glyph unicode="&#xe900;" glyph-name="account-circle" d="M512 874.667c-235.52 0-426.667-191.147-426.667-426.667s191.147-426.667 426.667-426.667 426.667 191.147 426.667 426.667-191.147 426.667-426.667 426.667zM512 746.667c70.827 0 128-57.173 128-128s-57.173-128-128-128-128 57.173-128 128 57.173 128 128 128zM512 140.8c-106.667 0-200.96 54.613-256 137.387 1.28 84.907 170.667 131.413 256 131.413 84.907 0 254.72-46.507 256-131.413-55.040-82.773-149.333-137.387-256-137.387z" />
<glyph unicode="&#xe901;" glyph-name="add-a-photo" d="M128 789.333v128h85.333v-128h128v-85.333h-128v-128h-85.333v128h-128v85.333h128zM256 533.333v128h128v128h298.667l78.080-85.333h135.253c46.933 0 85.333-38.4 85.333-85.333v-512c0-46.933-38.4-85.333-85.333-85.333h-682.667c-46.933 0-85.333 38.4-85.333 85.333v426.667h128zM554.667 149.333c117.76 0 213.333 95.573 213.333 213.333s-95.573 213.333-213.333 213.333-213.333-95.573-213.333-213.333 95.573-213.333 213.333-213.333zM418.133 362.667c0-75.52 61.013-136.533 136.533-136.533s136.533 61.013 136.533 136.533-61.013 136.533-136.533 136.533-136.533-61.013-136.533-136.533z" />
<glyph unicode="&#xe902;" glyph-name="add-alert" d="M427.093 63.573c0-46.933 37.973-84.907 84.907-84.907s84.907 37.973 84.907 84.907h-169.813zM805.547 242.347v248.32c0 138.667-96 254.72-225.707 285.44v30.72c0 37.547-30.293 67.84-67.84 67.84s-67.84-30.293-67.84-67.84v-30.72c-129.707-30.72-225.707-146.773-225.707-285.44v-248.32l-90.453-90.453v-45.227h768v45.227l-90.453 90.453zM682.667 404.907h-128v-128h-85.333v128h-128v85.76h128v128h85.333v-128h128v-85.76z" />
<glyph unicode="&#xe903;" glyph-name="add" d="M810.667 405.333h-256v-256h-85.333v256h-256v85.333h256v256h85.333v-256h256v-85.333z" />
<glyph unicode="&#xe904;" glyph-name="add-box" d="M810.667 832h-597.333c-47.36 0-85.333-38.4-85.333-85.333v-597.333c0-46.933 37.973-85.333 85.333-85.333h597.333c46.933 0 85.333 38.4 85.333 85.333v597.333c0 46.933-38.4 85.333-85.333 85.333zM725.333 405.333h-170.667v-170.667h-85.333v170.667h-170.667v85.333h170.667v170.667h85.333v-170.667h170.667v-85.333z" />
<glyph unicode="&#xe905;" glyph-name="add-circle" d="M512 874.667c-235.52 0-426.667-191.147-426.667-426.667s191.147-426.667 426.667-426.667 426.667 191.147 426.667 426.667-191.147 426.667-426.667 426.667zM725.333 405.333h-170.667v-170.667h-85.333v170.667h-170.667v85.333h170.667v170.667h85.333v-170.667h170.667v-85.333z" />
<glyph unicode="&#xe906;" glyph-name="add-circle-outline" d="M554.667 661.333h-85.333v-170.667h-170.667v-85.333h170.667v-170.667h85.333v170.667h170.667v85.333h-170.667v170.667zM512 874.667c-235.52 0-426.667-191.147-426.667-426.667s191.147-426.667 426.667-426.667 426.667 191.147 426.667 426.667-191.147 426.667-426.667 426.667zM512 106.667c-188.16 0-341.333 153.173-341.333 341.333s153.173 341.333 341.333 341.333 341.333-153.173 341.333-341.333-153.173-341.333-341.333-341.333z" />
<glyph unicode="&#xe907;" glyph-name="adjust-black" d="M512 874.667c-235.093 0-426.667-191.573-426.667-426.667s191.573-426.667 426.667-426.667 426.667 191.573 426.667 426.667-191.573 426.667-426.667 426.667zM512 106.667c-188.16 0-341.333 153.173-341.333 341.333s153.173 341.333 341.333 341.333 341.333-153.173 341.333-341.333-153.173-341.333-341.333-341.333zM640 448c0-70.827-57.173-128-128-128s-128 57.173-128 128 57.173 128 128 128 128-57.173 128-128z" />
<glyph unicode="&#xe908;" glyph-name="shuttle" d="M725.333 746.667h-597.333c-46.933 0-85.333-37.973-85.333-85.333v-384h85.333c0-70.4 57.173-128 128-128s128 57.6 128 128h234.667c0-70.4 57.173-128 128-128s128 57.6 128 128h106.667v213.333l-256 256zM128 490.667v170.667h170.667v-170.667h-170.667zM256 213.333c-35.413 0-64 28.587-64 64s28.587 64 64 64 64-28.587 64-64-28.587-64-64-64zM554.667 490.667h-170.667v170.667h170.667v-170.667zM746.667 213.333c-35.413 0-64 28.587-64 64s28.587 64 64 64 64-28.587 64-64-28.587-64-64-64zM640 490.667v170.667h42.667l170.667-170.667h-213.333z" />
<glyph unicode="&#xe909;" glyph-name="notification_" d="M938.667 715.947l-196.267 164.693-55.040-65.28 196.267-164.693 55.040 65.28zM336.213 815.36l-54.613 65.28-196.267-164.267 55.040-65.28 195.84 164.267zM533.333 618.667h-64v-256l202.667-121.6 32 52.48-170.667 101.12v224zM512 789.333c-212.053 0-384-171.947-384-384s171.52-384 384-384c212.053 0 384 171.947 384 384s-171.947 384-384 384zM512 106.667c-165.12 0-298.667 133.547-298.667 298.667s133.547 298.667 298.667 298.667 298.667-133.547 298.667-298.667-133.547-298.667-298.667-298.667z" />
<glyph unicode="&#xe90a;" glyph-name="announcement" d="M853.333 874.667h-682.667c-46.933 0-84.907-38.4-84.907-85.333l-0.427-768 170.667 170.667h597.333c46.933 0 85.333 38.4 85.333 85.333v512c0 46.933-38.4 85.333-85.333 85.333zM554.667 490.667h-85.333v256h85.333v-256zM554.667 320h-85.333v85.333h85.333v-85.333z" />
<glyph unicode="&#xe90b;" glyph-name="arrow-back" d="M853.333 490.667h-519.253l238.507 238.507-60.587 60.16-341.333-341.333 341.333-341.333 60.16 60.16-238.080 238.507h519.253v85.333z" />
<glyph unicode="&#xe90c;" glyph-name="arrow-downward" d="M853.333 448l-60.16 60.16-238.507-238.080v519.253h-85.333v-519.253l-238.080 238.507-60.587-60.587 341.333-341.333 341.333 341.333z" />
<glyph unicode="&#xe90d;" glyph-name="arrow-drop-down" d="M298.667 533.333l213.333-213.333 213.333 213.333z" />
<glyph unicode="&#xe90e;" glyph-name="arrow-drop-down-circle" d="M512 874.667c-235.52 0-426.667-191.147-426.667-426.667s191.147-426.667 426.667-426.667 426.667 191.147 426.667 426.667-191.147 426.667-426.667 426.667zM512 362.667l-170.667 170.667h341.333l-170.667-170.667z" />
<glyph unicode="&#xe90f;" glyph-name="arrow-drop-up" d="M298.667 362.667l213.333 213.333 213.333-213.333z" />
<glyph unicode="&#xe910;" glyph-name="arrow-forward" d="M512 789.333l-60.16-60.16 238.080-238.507h-519.253v-85.333h519.253l-238.080-238.507 60.16-60.16 341.333 341.333z" />
<glyph unicode="&#xe911;" glyph-name="arrow-upward" d="M170.667 448l60.16-60.16 238.507 238.080v-519.253h85.333v519.253l238.080-238.507 60.587 60.587-341.333 341.333-341.333-341.333z" />
<glyph unicode="&#xe912;" glyph-name="reports" d="M810.667 832h-597.333c-46.933 0-85.333-38.4-85.333-85.333v-597.333c0-46.933 38.4-85.333 85.333-85.333h597.333c46.933 0 85.333 38.4 85.333 85.333v597.333c0 46.933-38.4 85.333-85.333 85.333zM384 234.667h-85.333v298.667h85.333v-298.667zM554.667 234.667h-85.333v426.667h85.333v-426.667zM725.333 234.667h-85.333v170.667h85.333v-170.667z" />
<glyph unicode="&#xe913;" glyph-name="approved" d="M810.667 832h-178.347c-17.92 49.493-64.853 85.333-120.32 85.333s-102.4-35.84-120.32-85.333h-178.347c-46.933 0-85.333-38.4-85.333-85.333v-597.333c0-46.933 38.4-85.333 85.333-85.333h597.333c46.933 0 85.333 38.4 85.333 85.333v597.333c0 46.933-38.4 85.333-85.333 85.333zM512 832c23.467 0 42.667-19.2 42.667-42.667s-19.2-42.667-42.667-42.667-42.667 19.2-42.667 42.667 19.2 42.667 42.667 42.667zM426.667 234.667l-170.667 170.667 60.16 60.16 110.507-110.080 281.173 281.173 60.16-60.587-341.333-341.333z" />
<glyph unicode="&#xe914;" glyph-name="Progress" d="M810.667 832h-178.347c-17.92 49.493-64.853 85.333-120.32 85.333s-102.4-35.84-120.32-85.333h-178.347c-46.933 0-85.333-38.4-85.333-85.333v-597.333c0-46.933 38.4-85.333 85.333-85.333h597.333c46.933 0 85.333 38.4 85.333 85.333v597.333c0 46.933-38.4 85.333-85.333 85.333zM512 832c23.467 0 42.667-19.2 42.667-42.667s-19.2-42.667-42.667-42.667-42.667 19.2-42.667 42.667 19.2 42.667 42.667 42.667zM597.333 234.667h-298.667v85.333h298.667v-85.333zM725.333 405.333h-426.667v85.333h426.667v-85.333zM725.333 576h-426.667v85.333h426.667v-85.333z" />
<glyph unicode="&#xe915;" glyph-name="add-attachment" d="M704 704v-490.667c0-94.293-76.373-170.667-170.667-170.667s-170.667 76.373-170.667 170.667v533.333c0 58.88 47.787 106.667 106.667 106.667s106.667-47.787 106.667-106.667v-448c0-23.467-19.2-42.667-42.667-42.667s-42.667 19.2-42.667 42.667v405.333h-64v-405.333c0-58.88 47.787-106.667 106.667-106.667s106.667 47.787 106.667 106.667v448c0 94.293-76.373 170.667-170.667 170.667s-170.667-76.373-170.667-170.667v-533.333c0-129.707 104.96-234.667 234.667-234.667s234.667 104.96 234.667 234.667v490.667h-64z" />
<glyph unicode="&#xe916;" glyph-name="attached-file" d="M85.333 426.667c0 129.707 104.96 234.667 234.667 234.667h448c94.293 0 170.667-76.373 170.667-170.667s-76.373-170.667-170.667-170.667h-362.667c-58.88 0-106.667 47.787-106.667 106.667s47.787 106.667 106.667 106.667h320v-85.333h-323.84c-23.467 0-23.467-42.667 0-42.667h366.507c46.933 0 85.333 38.4 85.333 85.333s-38.4 85.333-85.333 85.333h-448c-82.347 0-149.333-66.987-149.333-149.333s66.987-149.333 149.333-149.333h405.333v-85.333h-405.333c-129.707 0-234.667 104.96-234.667 234.667z" />
<glyph unicode="&#xe917;" glyph-name="Employment" d="M426.667 277.333v42.667h-298.24l-0.427-170.667c0-47.36 37.973-85.333 85.333-85.333h597.333c47.36 0 85.333 37.973 85.333 85.333v170.667h-298.667v-42.667h-170.667zM853.333 661.333h-171.093v85.333l-85.333 85.333h-170.667l-85.333-85.333v-85.333h-170.24c-46.933 0-85.333-38.4-85.333-85.333v-128c0-47.36 37.973-85.333 85.333-85.333h256v85.333h170.667v-85.333h256c46.933 0 85.333 38.4 85.333 85.333v128c0 46.933-38.4 85.333-85.333 85.333zM597.333 661.333h-170.667v85.333h170.667v-85.333z" />
<glyph unicode="&#xe918;" glyph-name="birthdate" d="M512 704c47.36 0 85.333 38.4 85.333 85.333 0 16.213-4.267 31.147-12.373 43.947l-72.96 126.72-72.96-126.72c-8.107-12.8-12.373-27.733-12.373-43.947 0-46.933 38.4-85.333 85.333-85.333zM708.267 277.76l-45.653 45.653-46.080-45.653c-55.467-55.467-152.747-55.893-208.64 0l-45.653 45.653-46.507-45.653c-27.733-27.733-64.853-43.093-104.107-43.093-31.147 0-59.733 9.813-83.627 26.027v-196.693c0-23.467 19.2-42.667 42.667-42.667h682.667c23.467 0 42.667 19.2 42.667 42.667v196.693c-23.893-16.213-52.48-26.027-83.627-26.027-39.253 0-76.373 15.36-104.107 43.093zM768 576h-213.333v85.333h-85.333v-85.333h-213.333c-70.827 0-128-57.173-128-128v-65.707c0-46.080 37.547-83.627 83.627-83.627 22.187 0 43.52 8.533 58.88 24.32l91.307 90.88 90.88-90.88c31.573-31.573 86.613-31.573 118.187 0l91.307 90.88 90.88-90.88c15.787-15.787 36.693-24.32 58.88-24.32 46.080 0 83.627 37.547 83.627 83.627v65.707c0.427 70.827-56.747 128-127.573 128z" />
<glyph unicode="&#xe919;" glyph-name="phone-call" d="M282.453 499.627c61.44-120.747 160.427-219.307 281.173-281.173l93.867 93.867c11.52 11.52 28.587 15.36 43.52 10.24 47.787-15.787 99.413-24.32 152.32-24.32 23.467 0 42.667-19.2 42.667-42.667v-148.907c0-23.467-19.2-42.667-42.667-42.667-400.64 0-725.333 324.693-725.333 725.333 0 23.467 19.2 42.667 42.667 42.667h149.333c23.467 0 42.667-19.2 42.667-42.667 0-53.333 8.533-104.533 24.32-152.32 4.693-14.933 1.28-31.573-10.667-43.52l-93.867-93.867z" />
<glyph unicode="&#xe91a;" glyph-name="cancel" d="M512 874.667c-235.947 0-426.667-190.72-426.667-426.667s190.72-426.667 426.667-426.667 426.667 190.72 426.667 426.667-190.72 426.667-426.667 426.667zM725.333 294.827l-60.16-60.16-153.173 153.173-153.173-153.173-60.16 60.16 153.173 153.173-153.173 153.173 60.16 60.16 153.173-153.173 153.173 153.173 60.16-60.16-153.173-153.173 153.173-153.173z" />
<glyph unicode="&#xe91b;" glyph-name="card-membership" d="M853.333 874.667h-682.667c-47.36 0-85.333-37.973-85.333-85.333v-469.333c0-47.36 37.973-85.333 85.333-85.333h170.667v-213.333l170.667 85.333 170.667-85.333v213.333h170.667c47.36 0 85.333 37.973 85.333 85.333v469.333c0 47.36-37.973 85.333-85.333 85.333zM853.333 320h-682.667v85.333h682.667v-85.333zM853.333 533.333h-682.667v256h682.667v-256z" />
<glyph unicode="&#xe91c;" glyph-name="chat" d="M853.333 874.667h-682.667c-46.933 0-84.907-38.4-84.907-85.333l-0.427-768 170.667 170.667h597.333c46.933 0 85.333 38.4 85.333 85.333v512c0 46.933-38.4 85.333-85.333 85.333zM256 576h512v-85.333h-512v85.333zM597.333 362.667h-341.333v85.333h341.333v-85.333zM768 618.667h-512v85.333h512v-85.333z" />
<glyph unicode="&#xe91d;" glyph-name="chat-bubble" d="M853.333 874.667h-682.667c-46.933 0-85.333-38.4-85.333-85.333v-768l170.667 170.667h597.333c46.933 0 85.333 38.4 85.333 85.333v512c0 46.933-38.4 85.333-85.333 85.333z" />
<glyph unicode="&#xe91e;" glyph-name="chat-bubble-outline" d="M853.333 874.667h-682.667c-46.933 0-85.333-38.4-85.333-85.333v-768l170.667 170.667h597.333c46.933 0 85.333 38.4 85.333 85.333v512c0 46.933-38.4 85.333-85.333 85.333zM853.333 277.333h-597.333l-85.333-85.333v597.333h682.667v-512z" />
<glyph unicode="&#xe91f;" glyph-name="check-box" d="M810.667 832h-597.333c-47.36 0-85.333-38.4-85.333-85.333v-597.333c0-46.933 37.973-85.333 85.333-85.333h597.333c47.36 0 85.333 38.4 85.333 85.333v597.333c0 46.933-37.973 85.333-85.333 85.333zM426.667 234.667l-213.333 213.333 60.16 60.16 153.173-152.747 323.84 323.84 60.16-60.587-384-384z" />
<glyph unicode="&#xe920;" glyph-name="check-box-outline" d="M810.667 746.667v-597.333h-597.333v597.333h597.333zM810.667 832h-597.333c-46.933 0-85.333-38.4-85.333-85.333v-597.333c0-46.933 38.4-85.333 85.333-85.333h597.333c46.933 0 85.333 38.4 85.333 85.333v597.333c0 46.933-38.4 85.333-85.333 85.333z" />
<glyph unicode="&#xe921;" glyph-name="check-circle" d="M512 874.667c-235.52 0-426.667-191.147-426.667-426.667s191.147-426.667 426.667-426.667 426.667 191.147 426.667 426.667-191.147 426.667-426.667 426.667zM426.667 234.667l-213.333 213.333 60.16 60.16 153.173-152.747 323.84 323.84 60.16-60.587-384-384z" />
<glyph unicode="&#xe922;" glyph-name="cancel_" d="M810.667 686.507l-60.16 60.16-238.507-238.507-238.507 238.507-60.16-60.16 238.507-238.507-238.507-238.507 60.16-60.16 238.507 238.507 238.507-238.507 60.16 60.16-238.507 238.507z" />
<glyph unicode="&#xe923;" glyph-name="comment" d="M938.24 789.333c0 46.933-37.973 85.333-84.907 85.333h-682.667c-46.933 0-85.333-38.4-85.333-85.333v-512c0-46.933 38.4-85.333 85.333-85.333h597.333l170.667-170.667-0.427 768zM768 362.667h-512v85.333h512v-85.333zM768 490.667h-512v85.333h512v-85.333zM768 618.667h-512v85.333h512v-85.333z" />
<glyph unicode="&#xe924;" glyph-name="emergency" d="M938.667 832h-853.333c-46.933 0-85.333-38.4-85.333-85.333v-597.333c0-46.933 38.4-85.333 85.333-85.333h853.333c46.933 0 84.907 38.4 84.907 85.333l0.427 597.333c0 46.933-38.4 85.333-85.333 85.333zM341.333 704c70.827 0 128-57.173 128-128s-57.173-128-128-128-128 57.173-128 128 57.173 128 128 128zM597.333 192h-512v42.667c0 85.333 170.667 132.267 256 132.267s256-46.933 256-132.267v-42.667zM761.6 362.667h69.973l64.427-85.333-84.907-84.907c-55.893 41.813-97.28 101.547-116.48 170.24-7.68 27.307-11.947 55.893-11.947 85.333s4.267 58.027 11.947 85.333c19.2 69.12 60.587 128.427 116.48 170.24l84.907-84.907-64.427-85.333h-69.973c-9.387-26.88-14.933-55.467-14.933-85.333s5.547-58.453 14.933-85.333z" />
<glyph unicode="&#xe925;" glyph-name="online" d="M853.333 192c46.933 0 84.907 38.4 84.907 85.333l0.427 426.667c0 46.933-38.4 85.333-85.333 85.333h-682.667c-46.933 0-85.333-38.4-85.333-85.333v-426.667c0-46.933 38.4-85.333 85.333-85.333h-170.667v-85.333h1024v85.333h-170.667zM170.667 704h682.667v-426.667h-682.667v426.667z" />
<glyph unicode="&#xe926;" glyph-name="deduction" d="M411.307 634.027c9.813 21.333 15.36 44.8 15.36 69.973 0 94.293-76.373 170.667-170.667 170.667s-170.667-76.373-170.667-170.667 76.373-170.667 170.667-170.667c25.173 0 48.64 5.547 69.973 15.36l100.693-100.693-100.693-100.693c-21.333 9.813-44.8 15.36-69.973 15.36-94.293 0-170.667-76.373-170.667-170.667s76.373-170.667 170.667-170.667 170.667 76.373 170.667 170.667c0 25.173-5.547 48.64-15.36 69.973l100.693 100.693 298.667-298.667h128v42.667l-527.36 527.36zM256 618.667c-46.933 0-85.333 37.973-85.333 85.333s38.4 85.333 85.333 85.333 85.333-37.973 85.333-85.333-38.4-85.333-85.333-85.333zM256 106.667c-46.933 0-85.333 37.973-85.333 85.333s38.4 85.333 85.333 85.333 85.333-37.973 85.333-85.333-38.4-85.333-85.333-85.333zM512 426.667c-11.947 0-21.333 9.387-21.333 21.333s9.387 21.333 21.333 21.333 21.333-9.387 21.333-21.333-9.387-21.333-21.333-21.333zM810.667 832l-256-256 85.333-85.333 298.667 298.667v42.667z" />
<glyph unicode="&#xe927;" glyph-name="edit2" d="M128 224v-160h160l471.893 471.893-160 160-471.893-471.893zM883.627 659.627c16.64 16.64 16.64 43.52 0 60.16l-99.84 99.84c-16.64 16.64-43.52 16.64-60.16 0l-78.080-78.080 160-160 78.080 78.080z" />
<glyph unicode="&#xe928;" glyph-name="dashboard" d="M128 405.333h341.333v426.667h-341.333v-426.667zM128 64h341.333v256h-341.333v-256zM554.667 64h341.333v426.667h-341.333v-426.667zM554.667 832v-256h341.333v256h-341.333z" />
<glyph unicode="&#xe929;" glyph-name="date-range" d="M384 490.667h-85.333v-85.333h85.333v85.333zM554.667 490.667h-85.333v-85.333h85.333v85.333zM725.333 490.667h-85.333v-85.333h85.333v85.333zM810.667 789.333h-42.667v85.333h-85.333v-85.333h-341.333v85.333h-85.333v-85.333h-42.667c-47.36 0-84.907-38.4-84.907-85.333l-0.427-597.333c0-46.933 37.973-85.333 85.333-85.333h597.333c46.933 0 85.333 38.4 85.333 85.333v597.333c0 46.933-38.4 85.333-85.333 85.333zM810.667 106.667h-597.333v469.333h597.333v-469.333z" />
<glyph unicode="&#xe92a;" glyph-name="delete" d="M256 149.333c0-46.933 38.4-85.333 85.333-85.333h341.333c46.933 0 85.333 38.4 85.333 85.333v512h-512v-512zM810.667 789.333h-149.333l-42.667 42.667h-213.333l-42.667-42.667h-149.333v-85.333h597.333v85.333z" />
<glyph unicode="&#xe92b;" glyph-name="description" d="M597.333 874.667h-341.333c-46.933 0-84.907-38.4-84.907-85.333l-0.427-682.667c0-46.933 37.973-85.333 84.907-85.333h512.427c46.933 0 85.333 38.4 85.333 85.333v512l-256 256zM682.667 192h-341.333v85.333h341.333v-85.333zM682.667 362.667h-341.333v85.333h341.333v-85.333zM554.667 576v234.667l234.667-234.667h-234.667z" />
<glyph unicode="&#xe92c;" glyph-name="desktop-windows" d="M896 874.667h-768c-46.933 0-85.333-38.4-85.333-85.333v-512c0-46.933 38.4-85.333 85.333-85.333h298.667v-85.333h-85.333v-85.333h341.333v85.333h-85.333v85.333h298.667c46.933 0 85.333 38.4 85.333 85.333v512c0 46.933-38.4 85.333-85.333 85.333zM896 277.333h-768v512h768v-512z" />
<glyph unicode="&#xe92d;" glyph-name="assets-" d="M128 704h768v85.333h-768c-46.933 0-85.333-38.4-85.333-85.333v-512c0-46.933 38.4-85.333 85.333-85.333h170.667v85.333h-170.667v512zM554.667 448h-170.667v-75.947c-26.027-23.467-42.667-56.747-42.667-94.72s16.64-71.253 42.667-94.72v-75.947h170.667v75.947c26.027 23.467 42.667 57.173 42.667 94.72s-16.64 71.253-42.667 94.72v75.947zM469.333 213.333c-35.413 0-64 28.587-64 64s28.587 64 64 64 64-28.587 64-64-28.587-64-64-64zM938.667 618.667h-256c-21.333 0-42.667-21.333-42.667-42.667v-426.667c0-21.333 21.333-42.667 42.667-42.667h256c21.333 0 42.667 21.333 42.667 42.667v426.667c0 21.333-21.333 42.667-42.667 42.667zM896 192h-170.667v341.333h170.667v-341.333z" />
<glyph unicode="&#xe92e;" glyph-name="bus" d="M170.667 277.333c0-37.547 16.64-71.253 42.667-94.72v-75.947c0-23.467 19.2-42.667 42.667-42.667h42.667c23.467 0 42.667 19.2 42.667 42.667v42.667h341.333v-42.667c0-23.467 19.2-42.667 42.667-42.667h42.667c23.467 0 42.667 19.2 42.667 42.667v75.947c26.027 23.467 42.667 57.173 42.667 94.72v426.667c0 149.333-152.747 170.667-341.333 170.667s-341.333-21.333-341.333-170.667v-426.667zM320 234.667c-35.413 0-64 28.587-64 64s28.587 64 64 64 64-28.587 64-64-28.587-64-64-64zM704 234.667c-35.413 0-64 28.587-64 64s28.587 64 64 64 64-28.587 64-64-28.587-64-64-64zM768 490.667h-512v213.333h512v-213.333z" />
<glyph unicode="&#xe92f;" glyph-name="car" d="M807.253 703.573c-8.533 25.173-32.427 43.093-60.587 43.093h-469.333c-28.16 0-51.627-17.92-60.587-43.093l-88.747-255.573v-341.333c0-23.467 19.2-42.667 42.667-42.667h42.667c23.467 0 42.667 19.2 42.667 42.667v42.667h512v-42.667c0-23.467 19.2-42.667 42.667-42.667h42.667c23.467 0 42.667 19.2 42.667 42.667v341.333l-88.747 255.573zM277.333 277.333c-35.413 0-64 28.587-64 64s28.587 64 64 64 64-28.587 64-64-28.587-64-64-64zM746.667 277.333c-35.413 0-64 28.587-64 64s28.587 64 64 64 64-28.587 64-64-28.587-64-64-64zM213.333 490.667l64 192h469.333l64-192h-597.333z" />
<glyph unicode="&#xe930;" glyph-name="done" d="M384 268.8l-179.2 179.2-59.733-59.733 238.933-238.933 512 512-59.733 59.733-452.267-452.267z" />
<glyph unicode="&#xe931;" glyph-name="done-all" d="M768 661.333l-60.16 60.16-270.507-270.507 60.16-60.16 270.507 270.507zM948.907 721.493l-451.413-451.413-178.347 177.92-60.16-60.16 238.507-238.507 512 512-60.587 60.16zM17.493 387.84l238.507-238.507 60.16 60.16-238.080 238.507-60.587-60.16z" />
<glyph unicode="&#xe932;" glyph-name="performance" d="M469.333 743.253v131.413c-213.333-21.333-384-205.227-384-426.667s170.667-405.333 384-426.667v131.413c-128 20.48-256 145.067-256 295.253s128 274.773 256 295.253zM809.387 490.667h129.28c-20.053 213.333-170.667 363.947-384 384v-131.413c128-18.347 236.373-124.587 254.72-252.587zM554.667 152.747v-131.413c213.333 20.053 363.947 170.667 384 384h-129.28c-18.347-128-126.72-234.24-254.72-252.587z" />
<glyph unicode="&#xe933;" glyph-name="email" d="M853.333 789.333h-682.667c-46.933 0-84.907-38.4-84.907-85.333l-0.427-512c0-46.933 38.4-85.333 85.333-85.333h682.667c46.933 0 85.333 38.4 85.333 85.333v512c0 46.933-38.4 85.333-85.333 85.333zM853.333 618.667l-341.333-213.333-341.333 213.333v85.333l341.333-213.333 341.333 213.333v-85.333z" />
<glyph unicode="&#xe934;" glyph-name="error" d="M512 874.667c-235.52 0-426.667-191.147-426.667-426.667s191.147-426.667 426.667-426.667 426.667 191.147 426.667 426.667-191.147 426.667-426.667 426.667zM554.667 234.667h-85.333v85.333h85.333v-85.333zM554.667 405.333h-85.333v256h85.333v-256z" />
<glyph unicode="&#xe935;" glyph-name="error-outline" d="M469.333 320h85.333v-85.333h-85.333zM469.333 661.333h85.333v-256h-85.333zM511.573 874.667c-235.52 0-426.24-191.147-426.24-426.667s190.72-426.667 426.24-426.667c235.947 0 427.093 191.147 427.093 426.667s-191.147 426.667-427.093 426.667zM512 106.667c-188.587 0-341.333 152.747-341.333 341.333s152.747 341.333 341.333 341.333 341.333-152.747 341.333-341.333-152.747-341.333-341.333-341.333z" />
<glyph unicode="&#xe936;" glyph-name="fule_" d="M843.52 651.52l0.427 0.427-158.72 158.72-45.227-45.227 90.027-90.027c-40.107-15.36-68.693-53.76-68.693-99.413 0-58.88 47.787-106.667 106.667-106.667 15.36 0 29.44 3.413 42.667 8.96v-307.627c0-23.467-19.2-42.667-42.667-42.667s-42.667 19.2-42.667 42.667v192c0 46.933-38.4 85.333-85.333 85.333h-42.667v298.667c0 46.933-38.4 85.333-85.333 85.333h-256c-46.933 0-85.333-38.4-85.333-85.333v-682.667h426.667v320h64v-213.333c0-58.88 47.787-106.667 106.667-106.667s106.667 47.787 106.667 106.667v405.333c0 29.44-11.947 56.32-31.147 75.52zM768 533.333c-23.467 0-42.667 19.2-42.667 42.667s19.2 42.667 42.667 42.667 42.667-19.2 42.667-42.667-19.2-42.667-42.667-42.667zM341.333 192v192h-85.333l170.667 320v-213.333h85.333l-170.667-298.667z" />
<glyph unicode="&#xe937;" glyph-name="event" d="M725.333 448h-213.333v-213.333h213.333v213.333zM682.667 917.333v-85.333h-341.333v85.333h-85.333v-85.333h-42.667c-47.36 0-84.907-38.4-84.907-85.333l-0.427-597.333c0-46.933 37.973-85.333 85.333-85.333h597.333c46.933 0 85.333 38.4 85.333 85.333v597.333c0 46.933-38.4 85.333-85.333 85.333h-42.667v85.333h-85.333zM810.667 149.333h-597.333v469.333h597.333v-469.333z" />
<glyph unicode="&#xe938;" glyph-name="event-busy" d="M397.227 234.667l104.107 104.107 104.107-104.107 45.227 45.227-104.107 104.107 104.107 104.107-45.227 45.227-104.107-104.107-104.107 104.107-45.227-45.227 104.107-104.107-104.107-104.107 45.227-45.227zM810.667 832h-42.667v85.333h-85.333v-85.333h-341.333v85.333h-85.333v-85.333h-42.667c-47.36 0-84.907-38.4-84.907-85.333l-0.427-597.333c0-46.933 37.973-85.333 85.333-85.333h597.333c46.933 0 85.333 38.4 85.333 85.333v597.333c0 46.933-38.4 85.333-85.333 85.333zM810.667 149.333h-597.333v469.333h597.333v-469.333z" />
<glyph unicode="&#xe939;" glyph-name="event-note" d="M725.333 533.333h-426.667v-85.333h426.667v85.333zM810.667 832h-42.667v85.333h-85.333v-85.333h-341.333v85.333h-85.333v-85.333h-42.667c-47.36 0-84.907-38.4-84.907-85.333l-0.427-597.333c0-46.933 37.973-85.333 85.333-85.333h597.333c46.933 0 85.333 38.4 85.333 85.333v597.333c0 46.933-38.4 85.333-85.333 85.333zM810.667 149.333h-597.333v469.333h597.333v-469.333zM597.333 362.667h-298.667v-85.333h298.667v85.333z" />
<glyph unicode="&#xe93a;" glyph-name="position_" d="M170.667 192v-128h128v128h426.667v-128h128v256h-682.667zM810.667 533.333h128v-128h-128zM85.333 533.333h128v-128h-128zM725.333 405.333h-426.667v341.333c0 46.933 38.4 85.333 85.333 85.333h256c46.933 0 85.333-38.4 85.333-85.333v-341.333z" />
<glyph unicode="&#xe93b;" glyph-name="Skills" d="M874.667 490.667h-64v170.667c0 46.933-38.4 85.333-85.333 85.333h-170.667v64c0 58.88-47.787 106.667-106.667 106.667s-106.667-47.787-106.667-106.667v-64h-170.667c-46.933 0-84.907-38.4-84.907-85.333v-162.133h63.573c63.573 0 115.2-51.627 115.2-115.2s-51.627-115.2-115.2-115.2h-64v-162.133c0-46.933 38.4-85.333 85.333-85.333h162.133v64c0 63.573 51.627 115.2 115.2 115.2s115.2-51.627 115.2-115.2v-64h162.133c46.933 0 85.333 38.4 85.333 85.333v170.667h64c58.88 0 106.667 47.787 106.667 106.667s-47.787 106.667-106.667 106.667z" />
<glyph unicode="&#xe93c;" glyph-name="favorite" d="M512 49.067l-61.867 56.32c-219.733 199.253-364.8 330.667-364.8 491.947 0 131.413 103.253 234.667 234.667 234.667 74.24 0 145.493-34.56 192-89.173 46.507 54.613 117.76 89.173 192 89.173 131.413 0 234.667-103.253 234.667-234.667 0-161.28-145.067-292.693-364.8-492.373l-61.867-55.893z" />
<glyph unicode="&#xe93d;" glyph-name="favorite-border" d="M704 832c-74.24 0-145.493-34.56-192-89.173-46.507 54.613-117.76 89.173-192 89.173-131.413 0-234.667-103.253-234.667-234.667 0-161.28 145.067-292.693 364.8-492.373l61.867-55.893 61.867 56.32c219.733 199.253 364.8 330.667 364.8 491.947 0 131.413-103.253 234.667-234.667 234.667zM516.267 168.533l-4.267-4.267-4.267 4.267c-203.093 183.893-337.067 305.493-337.067 428.8 0 85.333 64 149.333 149.333 149.333 65.707 0 129.707-42.24 152.32-100.693h79.787c22.187 58.453 86.187 100.693 151.893 100.693 85.333 0 149.333-64 149.333-149.333 0-123.307-133.973-244.907-337.067-428.8z" />
<glyph unicode="&#xe93e;" glyph-name="feedback" d="M853.333 874.667h-682.667c-46.933 0-84.907-38.4-84.907-85.333l-0.427-768 170.667 170.667h597.333c46.933 0 85.333 38.4 85.333 85.333v512c0 46.933-38.4 85.333-85.333 85.333zM554.667 362.667h-85.333v85.333h85.333v-85.333zM554.667 533.333h-85.333v170.667h85.333v-170.667z" />
<glyph unicode="&#xe93f;" glyph-name="new" d="M853.333 789.333h-682.667c-47.36 0-84.907-37.973-84.907-85.333l-0.427-512c0-47.36 37.973-85.333 85.333-85.333h682.667c47.36 0 85.333 37.973 85.333 85.333v512c0 47.36-37.973 85.333-85.333 85.333zM362.667 320h-51.2l-108.8 149.333v-149.333h-53.333v256h53.333l106.667-149.333v149.333h53.333v-256zM576 522.24h-106.667v-47.787h106.667v-53.76h-106.667v-47.36h106.667v-53.333h-170.667v256h170.667v-53.76zM874.667 362.667c0-23.467-19.2-42.667-42.667-42.667h-170.667c-23.467 0-42.667 19.2-42.667 42.667v213.333h53.333v-192.427h48.213v150.187h53.333v-149.76h47.787v192h53.333v-213.333z" />
<glyph unicode="&#xe940;" glyph-name="pin" d="M234.667 512h85.333v-42.667h-85.333zM853.333 789.333h-682.667c-47.36 0-84.907-37.973-84.907-85.333l-0.427-512c0-47.36 37.973-85.333 85.333-85.333h682.667c47.36 0 85.333 37.973 85.333 85.333v512c0 47.36-37.973 85.333-85.333 85.333zM384 469.333c0-36.267-27.733-64-64-64h-85.333v-85.333h-64v256h149.333c36.267 0 64-27.733 64-64v-42.667zM533.333 320h-64v256h64v-256zM853.333 320h-51.2l-108.8 149.333v-149.333h-53.333v256h53.333l106.667-149.333v149.333h53.333v-256z" />
<glyph unicode="&#xe941;" glyph-name="find-in-page" d="M853.333 124.16v494.507l-256 256h-341.333c-46.933 0-84.907-38.4-84.907-85.333l-0.427-682.667c0-46.933 37.973-85.333 84.907-85.333h512.427c19.2 0 36.267 6.4 50.773 17.067l-189.013 189.013c-34.133-22.187-74.24-35.413-117.76-35.413-117.76 0-213.333 95.573-213.333 213.333s95.573 213.333 213.333 213.333 213.333-95.573 213.333-213.333c0-43.52-13.227-83.627-35.413-117.333l163.413-163.84zM384 405.333c0-70.827 57.173-128 128-128s128 57.173 128 128-57.173 128-128 128-128-57.173-128-128z" />
<glyph unicode="&#xe942;" glyph-name="Punch-IN_OUT" d="M759.893 769.28c-3.413 0-6.827 0.853-9.813 2.56-81.92 42.24-152.747 60.16-237.653 60.16-84.48 0-164.693-20.053-237.653-60.16-10.24-5.547-23.040-1.707-29.013 8.533-5.547 10.24-1.707 23.467 8.533 29.013 79.36 43.093 166.4 65.28 258.133 65.28 90.88 0 170.24-20.053 257.28-64.853 10.667-5.547 14.507-18.347 8.96-28.587-3.84-7.68-11.093-11.947-18.773-11.947zM149.333 545.28c-4.267 0-8.533 1.28-12.373 3.84-9.813 6.827-11.947 20.053-5.12 29.867 42.24 59.733 96 106.667 160 139.52 133.973 69.12 305.493 69.547 439.893 0.427 64-32.853 117.76-79.36 160-138.667 6.827-9.387 4.693-23.040-5.12-29.867s-23.040-4.693-29.867 5.12c-38.4 53.76-87.040 96-144.64 125.44-122.453 62.72-279.040 62.72-401.067-0.427-58.027-29.867-106.667-72.533-145.067-126.293-3.413-5.973-9.813-8.96-16.64-8.96zM416 30.293c-5.547 0-11.093 2.133-14.933 6.4-37.12 37.12-57.173 61.013-85.76 112.64-29.44 52.48-44.8 116.48-44.8 185.173 0 126.72 108.373 229.973 241.493 229.973s241.493-103.253 241.493-229.973c0-11.947-9.387-21.333-21.333-21.333s-21.333 9.387-21.333 21.333c0 103.253-89.173 187.307-198.827 187.307s-198.827-84.053-198.827-187.307c0-61.44 13.653-118.187 39.68-164.267 27.307-49.067 46.080-69.973 78.933-103.253 8.107-8.533 8.107-21.76 0-30.293-4.693-4.267-10.24-6.4-15.787-6.4zM721.92 109.227c-50.773 0-95.573 12.8-132.267 37.973-63.573 43.093-101.547 113.067-101.547 187.307 0 11.947 9.387 21.333 21.333 21.333s21.333-9.387 21.333-21.333c0-60.16 30.72-116.907 82.773-151.893 30.293-20.48 65.707-30.293 108.373-30.293 10.24 0 27.307 1.28 44.373 4.267 11.52 2.133 22.613-5.547 24.747-17.493 2.133-11.52-5.547-22.613-17.493-24.747-24.32-4.693-45.653-5.12-51.627-5.12zM636.16 21.333c-1.707 0-3.84 0.427-5.547 0.853-67.84 18.773-112.213 43.947-158.72 89.6-59.733 59.307-92.587 138.24-92.587 222.72 0 69.12 58.88 125.44 131.413 125.44s131.413-56.32 131.413-125.44c0-45.653 39.68-82.773 88.747-82.773s88.747 37.12 88.747 82.773c0 160.853-138.667 291.413-309.333 291.413-121.173 0-232.107-67.413-282.027-171.947-16.64-34.56-25.173-75.093-25.173-119.467 0-33.28 2.987-85.76 28.587-154.027 4.267-11.093-1.28-23.467-12.373-27.307-11.093-4.267-23.467 1.707-27.307 12.373-20.907 55.893-31.147 111.36-31.147 168.96 0 51.2 9.813 97.707 29.013 138.24 56.747 119.040 182.613 196.267 320.427 196.267 194.133 0 352-149.76 352-334.080 0-69.12-58.88-125.44-131.413-125.44s-131.413 56.32-131.413 125.44c0 45.653-39.68 82.773-88.747 82.773s-88.747-37.12-88.747-82.773c0-72.96 28.16-141.227 79.787-192.427 40.533-40.107 79.36-62.293 139.52-78.933 11.52-2.987 17.92-14.933 14.933-26.027-2.133-9.813-11.093-16.213-20.053-16.213z" />
<glyph unicode="&#xe943;" glyph-name="fitness" d="M877.653 325.973l61.013 61.013-61.013 61.013-152.32-152.32-365.653 365.653 152.32 152.32-61.013 61.013-61.013-61.013-61.013 61.013-91.307-91.307-61.013 61.013-61.013-61.013 61.013-61.013-91.307-91.307 61.013-61.013-61.013-61.013 61.013-61.013 152.32 152.32 365.653-365.653-152.32-152.32 61.013-61.013 61.013 61.013 61.013-61.013 91.307 91.307 61.013-61.013 61.013 61.013-61.013 61.013 91.307 91.307z" />
<glyph unicode="&#xe944;" glyph-name="forum" d="M896 704h-85.333v-384h-554.667v-85.333c0-23.467 19.2-42.667 42.667-42.667h469.333l170.667-170.667v640c0 23.467-19.2 42.667-42.667 42.667zM725.333 448v384c0 23.467-19.2 42.667-42.667 42.667h-554.667c-23.467 0-42.667-19.2-42.667-42.667v-597.333l170.667 170.667h426.667c23.467 0 42.667 19.2 42.667 42.667z" />
<glyph unicode="&#xe945;" glyph-name="grade" d="M512 223.147l263.68-159.147-69.973 299.947 232.96 201.813-306.773 26.027-119.893 282.88-119.893-282.88-306.773-26.027 232.96-201.813-69.973-299.947z" />
<glyph unicode="&#xe946;" glyph-name="member-add" d="M341.333 533.333h-128v128h-85.333v-128h-128v-85.333h128v-128h85.333v128h128v85.333zM768 490.667c70.827 0 127.573 57.173 127.573 128s-56.747 128-127.573 128c-13.653 0-26.88-2.133-38.827-5.973 24.32-34.56 38.4-76.373 38.4-122.027s-14.507-87.040-38.4-122.027c11.947-3.84 25.173-5.973 38.827-5.973zM554.667 490.667c70.827 0 127.573 57.173 127.573 128s-56.747 128-127.573 128c-70.827 0-128-57.173-128-128s57.173-128 128-128zM837.12 398.507c35.413-31.147 58.88-70.827 58.88-121.173v-85.333h128v85.333c0 65.707-101.12 106.24-186.88 121.173zM554.667 405.333c-85.333 0-256-42.667-256-128v-85.333h512v85.333c0 85.333-170.667 128-256 128z" />
<glyph unicode="&#xe947;" glyph-name="members" d="M682.667 490.667c70.827 0 127.573 57.173 127.573 128s-56.747 128-127.573 128c-70.827 0-128-57.173-128-128s57.173-128 128-128zM341.333 490.667c70.827 0 127.573 57.173 127.573 128s-56.747 128-127.573 128c-70.827 0-128-57.173-128-128s57.173-128 128-128zM341.333 405.333c-99.413 0-298.667-49.92-298.667-149.333v-106.667h597.333v106.667c0 99.413-199.253 149.333-298.667 149.333zM682.667 405.333c-12.373 0-26.453-0.853-41.387-2.133 49.493-35.84 84.053-84.053 84.053-147.2v-106.667h256v106.667c0 99.413-199.253 149.333-298.667 149.333z" />
<glyph unicode="&#xe948;" glyph-name="help." d="M512 874.667c-235.52 0-426.667-191.147-426.667-426.667s191.147-426.667 426.667-426.667 426.667 191.147 426.667 426.667-191.147 426.667-426.667 426.667zM554.667 149.333h-85.333v85.333h85.333v-85.333zM642.987 480l-38.4-39.253c-30.72-31.147-49.92-56.747-49.92-120.747h-85.333v21.333c0 46.933 19.2 89.6 49.92 120.747l52.907 53.76c15.787 15.36 25.173 36.693 25.173 60.16 0 46.933-38.4 85.333-85.333 85.333s-85.333-38.4-85.333-85.333h-85.333c0 94.293 76.373 170.667 170.667 170.667s170.667-76.373 170.667-170.667c0-37.547-15.36-71.68-39.68-96z" />
<glyph unicode="&#xe949;" glyph-name="help-outline" d="M469.333 192h85.333v85.333h-85.333v-85.333zM512 874.667c-235.52 0-426.667-191.147-426.667-426.667s191.147-426.667 426.667-426.667 426.667 191.147 426.667 426.667-191.147 426.667-426.667 426.667zM512 106.667c-188.16 0-341.333 153.173-341.333 341.333s153.173 341.333 341.333 341.333 341.333-153.173 341.333-341.333-153.173-341.333-341.333-341.333zM512 704c-94.293 0-170.667-76.373-170.667-170.667h85.333c0 46.933 38.4 85.333 85.333 85.333s85.333-38.4 85.333-85.333c0-85.333-128-74.667-128-213.333h85.333c0 96 128 106.667 128 213.333 0 94.293-76.373 170.667-170.667 170.667z" />
<glyph unicode="&#xe94a;" glyph-name="history-black" d="M554.667 832c-212.053 0-384-171.947-384-384h-128l165.973-165.973 2.987-5.973 172.373 171.947h-128c0 165.12 133.547 298.667 298.667 298.667s298.667-133.547 298.667-298.667-133.547-298.667-298.667-298.667c-82.347 0-157.013 33.707-210.773 87.893l-60.587-60.587c69.547-69.547 165.12-112.64 271.36-112.64 212.053 0 384 171.947 384 384s-171.947 384-384 384zM512 618.667v-213.333l182.613-108.373 30.72 51.627-149.333 88.747v181.333h-64z" />
<glyph unicode="&#xe94b;" glyph-name="address" d="M426.667 106.667v256h170.667v-256h213.333v341.333h128l-426.667 384-426.667-384h128v-341.333z" />
<glyph unicode="&#xe94c;" glyph-name="accomodationsvg" d="M298.667 405.333c70.827 0 128 57.173 128 128s-57.173 128-128 128-128-57.173-128-128 57.173-128 128-128zM810.667 661.333h-341.333v-298.667h-341.333v384h-85.333v-640h85.333v128h768v-128h85.333v384c0 94.293-76.373 170.667-170.667 170.667z" />
<glyph unicode="&#xe94d;" glyph-name="secure" d="M768 618.667h-42.667v85.333c0 117.76-95.573 213.333-213.333 213.333s-213.333-95.573-213.333-213.333v-85.333h-42.667c-46.933 0-85.333-38.4-85.333-85.333v-426.667c0-46.933 38.4-85.333 85.333-85.333h512c46.933 0 85.333 38.4 85.333 85.333v426.667c0 46.933-38.4 85.333-85.333 85.333zM512 234.667c-46.933 0-85.333 38.4-85.333 85.333s38.4 85.333 85.333 85.333 85.333-38.4 85.333-85.333-38.4-85.333-85.333-85.333zM644.267 618.667h-264.533v85.333c0 72.96 59.307 132.267 132.267 132.267s132.267-59.307 132.267-132.267v-85.333z" />
<glyph unicode="&#xe94e;" glyph-name="import-export" d="M384 832l-170.667-170.24h128v-299.093h85.333v299.093h128l-170.667 170.24zM682.667 234.24v299.093h-85.333v-299.093h-128l170.667-170.24 170.667 170.24h-128z" />
<glyph unicode="&#xe94f;" glyph-name="select-all" d="M810.667 832h-597.333c-46.933 0-85.333-38.4-85.333-85.333v-597.333c0-46.933 38.4-85.333 85.333-85.333h597.333c46.933 0 85.333 38.4 85.333 85.333v597.333c0 46.933-38.4 85.333-85.333 85.333zM725.333 405.333h-426.667v85.333h426.667v-85.333z" />
<glyph unicode="&#xe950;" glyph-name="info-outline" d="M469.333 234.667h85.333v256h-85.333v-256zM512 874.667c-235.52 0-426.667-191.147-426.667-426.667s191.147-426.667 426.667-426.667 426.667 191.147 426.667 426.667-191.147 426.667-426.667 426.667zM512 106.667c-188.16 0-341.333 153.173-341.333 341.333s153.173 341.333 341.333 341.333 341.333-153.173 341.333-341.333-153.173-341.333-341.333-341.333zM469.333 576h85.333v85.333h-85.333v-85.333z" />
<glyph unicode="&#xe951;" glyph-name="chart" d="M810.667 832h-597.333c-46.933 0-85.333-38.4-85.333-85.333v-597.333c0-46.933 38.4-85.333 85.333-85.333h597.333c46.933 0 85.333 38.4 85.333 85.333v597.333c0 46.933-38.4 85.333-85.333 85.333zM384 234.667h-85.333v298.667h85.333v-298.667zM554.667 234.667h-85.333v426.667h85.333v-426.667zM725.333 234.667h-85.333v170.667h85.333v-170.667z" />
<glyph unicode="&#xe952;" glyph-name="insert-comment" d="M853.333 874.667h-682.667c-46.933 0-85.333-38.4-85.333-85.333v-512c0-46.933 38.4-85.333 85.333-85.333h597.333l170.667-170.667v768c0 46.933-38.4 85.333-85.333 85.333zM768 362.667h-512v85.333h512v-85.333zM768 490.667h-512v85.333h512v-85.333zM768 618.667h-512v85.333h512v-85.333z" />
<glyph unicode="&#xe953;" glyph-name="insert-invitation" d="M725.333 448h-213.333v-213.333h213.333v213.333zM682.667 917.333v-85.333h-341.333v85.333h-85.333v-85.333h-42.667c-47.36 0-84.907-38.4-84.907-85.333l-0.427-597.333c0-46.933 37.973-85.333 85.333-85.333h597.333c46.933 0 85.333 38.4 85.333 85.333v597.333c0 46.933-38.4 85.333-85.333 85.333h-42.667v85.333h-85.333zM810.667 149.333h-597.333v469.333h597.333v-469.333z" />
<glyph unicode="&#xe954;" glyph-name="arrow-down3" d="M316.16 625.493l195.84-195.413 195.84 195.413 60.16-60.16-256-256-256 256z" />
<glyph unicode="&#xe955;" glyph-name="arrow-left" d="M657.493 273.493l-195.413 195.84 195.413 195.84-60.16 60.16-256-256 256-256z" />
<glyph unicode="&#xe956;" glyph-name="arrow-right3" d="M366.507 262.827l195.413 195.84-195.413 195.84 60.16 60.16 256-256-256-256z" />
<glyph unicode="&#xe957;" glyph-name="arrow-up2" d="M316.16 302.507l195.84 195.413 195.84-195.413 60.16 60.16-256 256-256-256z" />
<glyph unicode="&#xe958;" glyph-name="language" d="M511.573 874.667c-235.52 0-426.24-191.147-426.24-426.667s190.72-426.667 426.24-426.667c235.947 0 427.093 191.147 427.093 426.667s-191.147 426.667-427.093 426.667zM807.253 618.667h-125.867c-13.653 53.333-33.28 104.533-58.88 151.893 78.507-26.88 143.787-81.493 184.747-151.893zM512 787.627c35.413-51.2 63.147-107.947 81.493-168.96h-162.987c18.347 61.013 46.080 117.76 81.493 168.96zM181.76 362.667c-6.827 27.307-11.093 55.893-11.093 85.333s4.267 58.027 11.093 85.333h144.213c-3.413-28.16-5.973-56.32-5.973-85.333s2.56-57.173 5.973-85.333h-144.213zM216.747 277.333h125.867c13.653-53.333 33.28-104.533 58.88-151.893-78.507 26.88-143.787 81.067-184.747 151.893zM342.613 618.667h-125.867c40.96 70.827 106.24 125.013 184.747 151.893-25.6-47.36-45.227-98.56-58.88-151.893zM512 108.373c-35.413 51.2-63.147 107.947-81.493 168.96h162.987c-18.347-61.013-46.080-117.76-81.493-168.96zM611.84 362.667h-199.68c-3.84 28.16-6.827 56.32-6.827 85.333s2.987 57.6 6.827 85.333h199.68c3.84-27.733 6.827-56.32 6.827-85.333s-2.987-57.173-6.827-85.333zM622.507 125.44c25.6 47.36 45.227 98.56 58.88 151.893h125.867c-40.96-70.4-106.24-125.013-184.747-151.893zM698.027 362.667c3.413 28.16 5.973 56.32 5.973 85.333s-2.56 57.173-5.973 85.333h144.213c6.827-27.307 11.093-55.893 11.093-85.333s-4.267-58.027-11.093-85.333h-144.213z" />
<glyph unicode="&#xe959;" glyph-name="live-help" d="M810.667 874.667h-597.333c-47.36 0-85.333-38.4-85.333-85.333v-597.333c0-46.933 37.973-85.333 85.333-85.333h170.667l128-128 128 128h170.667c46.933 0 85.333 38.4 85.333 85.333v597.333c0 46.933-38.4 85.333-85.333 85.333zM554.667 192h-85.333v85.333h85.333v-85.333zM642.987 522.667l-38.4-39.253c-30.72-31.147-49.92-56.747-49.92-120.747h-85.333v21.333c0 46.933 19.2 89.6 49.92 120.747l52.907 53.76c15.787 15.36 25.173 36.693 25.173 60.16 0 46.933-38.4 85.333-85.333 85.333s-85.333-38.4-85.333-85.333h-85.333c0 94.293 76.373 170.667 170.667 170.667s170.667-76.373 170.667-170.667c0-37.547-15.36-71.68-39.68-96z" />
<glyph unicode="&#xe95a;" glyph-name="dining" d="M345.6 390.827l120.747 120.747-299.52 299.093c-66.56-66.56-66.56-174.507 0-241.493l178.773-178.347zM634.88 468.053c65.28-30.293 157.013-8.96 224.853 58.88 81.493 81.493 97.28 198.4 34.56 261.12-62.293 62.293-179.2 46.933-261.12-34.56-67.84-67.84-89.173-159.573-58.88-224.853l-416.427-416.427 60.16-60.16 293.973 293.12 293.547-293.547 60.16 60.16-293.547 293.547 62.72 62.72z" />
<glyph unicode="&#xe95b;" glyph-name="hospital" d="M810.667 832h-597.333c-46.933 0-84.907-38.4-84.907-85.333l-0.427-597.333c0-46.933 38.4-85.333 85.333-85.333h597.333c46.933 0 85.333 38.4 85.333 85.333v597.333c0 46.933-38.4 85.333-85.333 85.333zM768 362.667h-170.667v-170.667h-170.667v170.667h-170.667v170.667h170.667v170.667h170.667v-170.667h170.667v-170.667z" />
<glyph unicode="&#xe95c;" glyph-name="shopping" d="M810.667 704h-85.333c0 117.76-95.573 213.333-213.333 213.333s-213.333-95.573-213.333-213.333h-85.333c-46.933 0-84.907-38.4-84.907-85.333l-0.427-512c0-46.933 38.4-85.333 85.333-85.333h597.333c46.933 0 85.333 38.4 85.333 85.333v512c0 46.933-38.4 85.333-85.333 85.333zM512 832c70.827 0 128-57.173 128-128h-256c0 70.827 57.173 128 128 128zM512 405.333c-117.76 0-213.333 95.573-213.333 213.333h85.333c0-70.827 57.173-128 128-128s128 57.173 128 128h85.333c0-117.76-95.573-213.333-213.333-213.333z" />
<glyph unicode="&#xe95d;" glyph-name="parking" d="M554.667 832h-298.667v-768h170.667v256h128c141.227 0 256 114.773 256 256s-114.773 256-256 256zM563.2 490.667h-136.533v170.667h136.533c46.933 0 85.333-38.4 85.333-85.333s-38.4-85.333-85.333-85.333z" />
<glyph unicode="&#xe95e;" glyph-name="medical" d="M896 746.667h-112.64l48.64 133.973-100.267 36.693-62.293-170.667h-541.44v-85.333l85.333-256-85.333-256v-85.333h768v85.333l-85.333 256 85.333 256v85.333zM682.667 362.667h-128v-128h-85.333v128h-128v85.333h128v128h85.333v-128h128v-85.333z" />
<glyph unicode="&#xe95f;" glyph-name="tax" d="M807.253 703.573c-8.533 25.173-32.427 43.093-60.587 43.093h-106.667v85.333h-256v-85.333h-106.667c-28.16 0-51.627-17.92-60.587-43.093l-88.747-255.573v-341.333c0-23.467 19.2-42.667 42.667-42.667h42.667c23.467 0 42.667 19.2 42.667 42.667v42.667h512v-42.667c0-23.467 19.2-42.667 42.667-42.667h42.667c23.467 0 42.667 19.2 42.667 42.667v341.333l-88.747 255.573zM277.333 277.333c-35.413 0-64 28.587-64 64s28.587 64 64 64 64-28.587 64-64-28.587-64-64-64zM746.667 277.333c-35.413 0-64 28.587-64 64s28.587 64 64 64 64-28.587 64-64-28.587-64-64-64zM213.333 490.667l64 192h469.333l64-192h-597.333z" />
<glyph unicode="&#xe960;" glyph-name="unsecured" d="M512 234.667c46.933 0 85.333 38.4 85.333 85.333s-38.4 85.333-85.333 85.333-85.333-38.4-85.333-85.333 38.4-85.333 85.333-85.333zM768 618.667h-42.667v85.333c0 117.76-95.573 213.333-213.333 213.333s-213.333-95.573-213.333-213.333h81.067c0 72.96 59.307 132.267 132.267 132.267s132.267-59.307 132.267-132.267v-85.333h-388.267c-46.933 0-85.333-38.4-85.333-85.333v-426.667c0-46.933 38.4-85.333 85.333-85.333h512c46.933 0 85.333 38.4 85.333 85.333v426.667c0 46.933-38.4 85.333-85.333 85.333zM768 106.667h-512v426.667h512v-426.667z" />
<glyph unicode="&#xe961;" glyph-name="message" d="M853.333 874.667h-682.667c-46.933 0-84.907-38.4-84.907-85.333l-0.427-768 170.667 170.667h597.333c46.933 0 85.333 38.4 85.333 85.333v512c0 46.933-38.4 85.333-85.333 85.333zM768 362.667h-512v85.333h512v-85.333zM768 490.667h-512v85.333h512v-85.333zM768 618.667h-512v85.333h512v-85.333z" />
<glyph unicode="&#xe962;" glyph-name="more-horiz" d="M256 533.333c-46.933 0-85.333-38.4-85.333-85.333s38.4-85.333 85.333-85.333 85.333 38.4 85.333 85.333-38.4 85.333-85.333 85.333zM768 533.333c-46.933 0-85.333-38.4-85.333-85.333s38.4-85.333 85.333-85.333 85.333 38.4 85.333 85.333-38.4 85.333-85.333 85.333zM512 533.333c-46.933 0-85.333-38.4-85.333-85.333s38.4-85.333 85.333-85.333 85.333 38.4 85.333 85.333-38.4 85.333-85.333 85.333z" />
<glyph unicode="&#xe963;" glyph-name="motorcycle" d="M829.44 574.72l-171.947 171.947h-188.16v-85.333h153.173l85.333-85.333h-494.507c-119.467 0-213.333-93.867-213.333-213.333s93.867-213.333 213.333-213.333c104.96 0 189.867 72.107 209.067 170.667h70.4l118.187 118.187c-8.96-23.040-13.653-48.64-13.653-75.52 0-119.467 93.867-213.333 213.333-213.333s213.333 93.867 213.333 213.333c0 113.067-84.053 203.52-194.56 212.053zM333.653 320c-17.92-49.067-65.707-85.333-120.32-85.333-69.547 0-128 58.453-128 128s58.453 128 128 128c54.613 0 102.4-36.267 120.32-85.333h-120.32v-85.333h120.32zM810.667 234.667c-70.827 0-128 57.173-128 128s57.173 128 128 128 128-57.173 128-128-57.173-128-128-128z" />
<glyph unicode="&#xe964;" glyph-name="notifications-active" d="M323.413 785.92l-61.013 61.013c-102.4-78.080-169.813-198.4-175.787-334.933h85.333c6.4 113.067 64.427 212.053 151.467 273.92zM852.053 512h85.333c-6.4 136.533-73.813 256.853-175.787 334.933l-60.587-61.013c86.187-61.867 144.64-160.853 151.040-273.92zM768 490.667c0 130.987-69.973 240.64-192 269.653v29.013c0 35.413-28.587 64-64 64s-64-28.587-64-64v-29.013c-122.453-29.013-192-138.24-192-269.653v-213.333l-85.333-85.333v-42.667h682.667v42.667l-85.333 85.333v213.333zM512 21.333c5.973 0 11.52 0.427 17.067 1.707 27.733 5.973 50.347 24.747 61.44 50.347 4.267 10.24 6.4 21.333 6.4 33.28h-170.667c0.427-46.933 38.4-85.333 85.76-85.333z" />
<glyph unicode="&#xe965;" glyph-name="notifications-none" d="M512 21.333c46.933 0 85.333 38.4 85.333 85.333h-170.667c0-46.933 38.4-85.333 85.333-85.333zM768 277.333v213.333c0 130.987-69.547 240.64-192 269.653v29.013c0 35.413-28.587 64-64 64s-64-28.587-64-64v-29.013c-122.027-29.013-192-138.24-192-269.653v-213.333l-85.333-85.333v-42.667h682.667v42.667l-85.333 85.333zM682.667 234.667h-341.333v256c0 105.813 64.427 192 170.667 192s170.667-86.187 170.667-192v-256z" />
<glyph unicode="&#xe966;" glyph-name="attendance" d="M981.333 725.333v-618.667c0-93.867-76.8-170.667-170.667-170.667h-311.467c-46.080 0-89.6 18.347-121.6 50.773l-334.933 340.48s53.76 52.48 55.467 53.333c9.387 8.107 20.907 12.373 33.707 12.373 9.387 0 17.92-2.56 25.6-6.827 1.707-0.427 183.893-104.96 183.893-104.96v508.16c0 35.413 28.587 64 64 64s64-28.587 64-64v-298.667h42.667v405.333c0 35.413 28.587 64 64 64s64-28.587 64-64v-405.333h42.667v362.667c0 35.413 28.587 64 64 64s64-28.587 64-64v-362.667h42.667v234.667c0 35.413 28.587 64 64 64s64-28.587 64-64z" />
<glyph unicode="&#xe967;" glyph-name="SMS" d="M853.333 298.667c-53.333 0-104.533 8.533-152.32 24.32-14.933 4.693-31.573 1.28-43.52-10.24l-93.867-93.867c-120.747 61.44-219.733 160-281.173 280.747l93.867 94.293c11.947 11.52 15.36 28.16 10.667 43.093-15.787 47.787-24.32 98.987-24.32 152.32 0 23.467-19.2 42.667-42.667 42.667h-149.333c-23.467 0-42.667-19.2-42.667-42.667 0-400.64 324.693-725.333 725.333-725.333 23.467 0 42.667 19.2 42.667 42.667v149.333c0 23.467-19.2 42.667-42.667 42.667zM512 832v-426.667l128 128h256v298.667h-384z" />
<glyph unicode="&#xe968;" glyph-name="personadd" d="M640 448c94.293 0 170.667 76.373 170.667 170.667s-76.373 170.667-170.667 170.667-170.667-76.373-170.667-170.667 76.373-170.667 170.667-170.667zM256 533.333v128h-85.333v-128h-128v-85.333h128v-128h85.333v128h128v85.333h-128zM640 362.667c-113.92 0-341.333-57.173-341.333-170.667v-85.333h682.667v85.333c0 113.493-227.413 170.667-341.333 170.667z" />
<glyph unicode="&#xe969;" glyph-name="pdf_" d="M853.333 874.667h-512c-46.933 0-85.333-38.4-85.333-85.333v-512c0-46.933 38.4-85.333 85.333-85.333h512c46.933 0 85.333 38.4 85.333 85.333v512c0 46.933-38.4 85.333-85.333 85.333zM490.667 554.667c0-35.413-28.587-64-64-64h-42.667v-85.333h-64v256h106.667c35.413 0 64-28.587 64-64v-42.667zM704 469.333c0-35.413-28.587-64-64-64h-106.667v256h106.667c35.413 0 64-28.587 64-64v-128zM874.667 597.333h-64v-42.667h64v-64h-64v-85.333h-64v256h128v-64zM384 554.667h42.667v42.667h-42.667v-42.667zM170.667 704h-85.333v-597.333c0-46.933 38.4-85.333 85.333-85.333h597.333v85.333h-597.333v597.333zM597.333 469.333h42.667v128h-42.667v-128z" />
<glyph unicode="&#xe96a;" glyph-name="print" d="M810.667 618.667h-597.333c-70.827 0-128-57.173-128-128v-256h170.667v-170.667h512v170.667h170.667v256c0 70.827-57.173 128-128 128zM682.667 149.333h-341.333v213.333h341.333v-213.333zM810.667 448c-23.467 0-42.667 19.2-42.667 42.667s19.2 42.667 42.667 42.667 42.667-19.2 42.667-42.667-19.2-42.667-42.667-42.667zM768 832h-512v-170.667h512v170.667z" />
<glyph unicode="&#xe96b;" glyph-name="social" d="M512 874.667c-235.52 0-426.667-191.147-426.667-426.667s191.147-426.667 426.667-426.667 426.667 191.147 426.667 426.667-191.147 426.667-426.667 426.667zM469.333 109.653c-168.533 20.907-298.667 164.267-298.667 338.347 0 26.453 3.413 51.627 8.96 76.373l204.373-204.373v-42.667c0-46.933 38.4-85.333 85.333-85.333v-82.347zM763.733 218.027c-11.093 34.56-42.667 59.307-81.067 59.307h-42.667v128c0 23.467-19.2 42.667-42.667 42.667h-256v85.333h85.333c23.467 0 42.667 19.2 42.667 42.667v85.333h85.333c46.933 0 85.333 38.4 85.333 85.333v17.493c125.013-50.773 213.333-173.227 213.333-316.16 0-88.747-34.133-169.387-89.6-229.973z" />
<glyph unicode="&#xe96c;" glyph-name="publish" d="M213.333 789.333v-85.333h597.333v85.333h-597.333zM213.333 362.667h170.667v-256h256v256h170.667l-298.667 298.667-298.667-298.667z" />
<glyph unicode="&#xe96d;" glyph-name="Pending-" d="M511.573 874.667c-235.52 0-426.24-191.147-426.24-426.667s190.72-426.667 426.24-426.667c235.947 0 427.093 191.147 427.093 426.667s-191.147 426.667-427.093 426.667zM512 106.667c-188.587 0-341.333 152.747-341.333 341.333s152.747 341.333 341.333 341.333 341.333-152.747 341.333-341.333-152.747-341.333-341.333-341.333zM533.333 661.333h-64v-256l224-134.4 32 52.48-192 113.92z" />
<glyph unicode="&#xe96e;" glyph-name="question-answer" d="M896 704h-85.333v-384h-554.667v-85.333c0-23.467 19.2-42.667 42.667-42.667h469.333l170.667-170.667v640c0 23.467-19.2 42.667-42.667 42.667zM725.333 448v384c0 23.467-19.2 42.667-42.667 42.667h-554.667c-23.467 0-42.667-19.2-42.667-42.667v-597.333l170.667 170.667h426.667c23.467 0 42.667 19.2 42.667 42.667z" />
<glyph unicode="&#xe96f;" glyph-name="radio-button-checked" d="M512 661.333c-117.76 0-213.333-95.573-213.333-213.333s95.573-213.333 213.333-213.333 213.333 95.573 213.333 213.333-95.573 213.333-213.333 213.333zM512 874.667c-235.52 0-426.667-191.147-426.667-426.667s191.147-426.667 426.667-426.667 426.667 191.147 426.667 426.667-191.147 426.667-426.667 426.667zM512 106.667c-188.587 0-341.333 152.747-341.333 341.333s152.747 341.333 341.333 341.333 341.333-152.747 341.333-341.333-152.747-341.333-341.333-341.333z" />
<glyph unicode="&#xe970;" glyph-name="radio-button-unchecked" d="M512 874.667c-235.52 0-426.667-191.147-426.667-426.667s191.147-426.667 426.667-426.667 426.667 191.147 426.667 426.667-191.147 426.667-426.667 426.667zM512 106.667c-188.587 0-341.333 152.747-341.333 341.333s152.747 341.333 341.333 341.333 341.333-152.747 341.333-341.333-152.747-341.333-341.333-341.333z" />
<glyph unicode="&#xe971;" glyph-name="claim" d="M768 234.667h-512v85.333h512v-85.333zM768 405.333h-512v85.333h512v-85.333zM768 576h-512v85.333h512v-85.333zM128 21.333l64 64 64-64 64 64 64-64 64 64 64-64 64 64 64-64 64 64 64-64 64 64 64-64v853.333l-64-64-64 64-64-64-64 64-64-64-64 64-64-64-64 64-64-64-64 64-64-64-64 64v-853.333z" />
<glyph unicode="&#xe972;" glyph-name="speck" d="M554.667 576c0-94.257-76.41-170.667-170.667-170.667s-170.667 76.41-170.667 170.667c0 94.257 76.41 170.667 170.667 170.667s170.667-76.41 170.667-170.667zM384 320c-113.92 0-341.333-57.173-341.333-170.667v-85.333h682.667v85.333c0 113.493-227.413 170.667-341.333 170.667zM715.093 731.307l-71.68-72.107c35.84-50.347 35.84-115.627 0-165.973l71.68-72.107c86.187 86.187 86.187 216.32 0 310.187zM856.32 874.667l-69.547-69.547c118.187-128.853 118.187-322.56 0-458.24l69.547-69.547c166.4 165.973 166.827 424.533 0 597.333z" />
<glyph unicode="&#xe973;" glyph-name="refresh" d="M753.067 689.067c-61.867 61.867-146.773 100.267-241.067 100.267-188.587 0-340.907-152.747-340.907-341.333s152.32-341.333 340.907-341.333c159.147 0 291.84 108.8 329.813 256h-88.747c-34.987-99.413-129.707-170.667-241.067-170.667-141.227 0-256 114.773-256 256s114.773 256 256 256c70.827 0 133.973-29.44 180.053-75.947l-137.387-137.387h298.667v298.667l-100.267-100.267z" />
<glyph unicode="&#xe974;" glyph-name="reply-all" d="M298.667 618.667v128l-298.667-298.667 298.667-298.667v128l-170.667 170.667 170.667 170.667zM554.667 576v170.667l-298.667-298.667 298.667-298.667v174.933c213.333 0 362.667-68.267 469.333-217.6-42.667 213.333-170.667 426.667-469.333 469.333z" />
<glyph unicode="&#xe975;" glyph-name="save" d="M725.333 832h-512c-47.36 0-85.333-38.4-85.333-85.333v-597.333c0-46.933 37.973-85.333 85.333-85.333h597.333c46.933 0 85.333 38.4 85.333 85.333v512l-170.667 170.667zM512 149.333c-70.827 0-128 57.173-128 128s57.173 128 128 128 128-57.173 128-128-57.173-128-128-128zM640 576h-426.667v170.667h426.667v-170.667z" />
<glyph unicode="&#xe976;" glyph-name="approve" d="M85.76 64l895.573 384-895.573 384-0.427-298.667 640-85.333-640-85.333z" />
<glyph unicode="&#xe977;" glyph-name="settings-applications" d="M512 533.333c-46.933 0-85.333-38.4-85.333-85.333s38.4-85.333 85.333-85.333 85.333 38.4 85.333 85.333-38.4 85.333-85.333 85.333zM810.667 832h-597.333c-47.36 0-85.333-38.4-85.333-85.333v-597.333c0-46.933 37.973-85.333 85.333-85.333h597.333c47.36 0 85.333 38.4 85.333 85.333v597.333c0 46.933-37.973 85.333-85.333 85.333zM736 448c0-9.813-0.853-19.627-2.133-29.013l63.147-49.493c5.547-4.693 7.253-12.8 3.413-19.2l-59.733-103.253c-3.84-6.4-11.52-8.96-18.347-6.4l-74.24 29.867c-15.36-11.947-32.427-21.76-50.347-29.44l-11.093-78.933c-1.28-7.253-7.68-12.8-14.933-12.8h-119.467c-7.253 0-13.653 5.547-14.933 12.373l-11.093 78.933c-18.347 7.68-34.987 17.493-50.347 29.44l-74.24-29.867c-6.827-2.56-14.507 0-18.347 6.4l-59.733 103.253c-3.84 6.4-2.133 14.507 3.413 19.2l63.147 49.493c-1.28 9.813-2.133 19.627-2.133 29.44s0.853 19.627 2.133 29.013l-63.147 49.493c-5.547 4.693-7.253 12.8-3.413 19.2l59.733 103.253c3.84 6.4 11.52 8.96 18.347 6.4l74.24-29.867c15.36 11.947 32.427 21.76 50.347 29.44l11.093 78.933c1.28 7.253 7.68 12.8 14.933 12.8h119.467c7.253 0 13.653-5.547 14.933-12.373l11.093-78.933c18.347-7.68 34.987-17.493 50.347-29.44l74.24 29.867c6.827 2.56 14.507 0 18.347-6.4l59.733-103.253c3.84-6.4 2.133-14.507-3.413-19.2l-63.147-49.493c1.28-9.813 2.133-19.627 2.133-29.44z" />
<glyph unicode="&#xe978;" glyph-name="settings" d="M829.013 406.187c1.707 13.653 2.987 27.307 2.987 41.813s-1.28 28.16-2.987 41.813l90.027 70.4c8.107 6.4 10.24 17.92 5.12 27.307l-85.333 147.627c-5.12 9.387-16.64 12.8-26.027 9.387l-106.24-42.667c-22.187 17.067-46.080 31.147-72.107 41.813l-16.213 113.067c-1.28 10.24-10.24 17.92-20.907 17.92h-170.667c-10.667 0-19.627-7.68-20.907-17.92l-16.213-113.067c-26.027-10.667-49.92-25.173-72.107-41.813l-106.24 42.667c-9.813 3.84-20.907 0-26.027-9.387l-85.333-147.627c-5.547-9.387-2.987-20.907 5.12-27.307l90.027-70.4c-1.707-13.653-2.987-27.733-2.987-41.813s1.28-28.16 2.987-41.813l-90.027-70.4c-8.107-6.4-10.24-17.92-5.12-27.307l85.333-147.627c5.12-9.387 16.64-12.8 26.027-9.387l106.24 42.667c22.187-17.067 46.080-31.147 72.107-41.813l16.213-113.067c1.28-10.24 10.24-17.92 20.907-17.92h170.667c10.667 0 19.627 7.68 20.907 17.92l16.213 113.067c26.027 10.667 49.92 25.173 72.107 41.813l106.24-42.667c9.813-3.84 20.907 0 26.027 9.387l85.333 147.627c5.12 9.387 2.987 20.907-5.12 27.307l-90.027 70.4zM512 298.667c-82.347 0-149.333 66.987-149.333 149.333s66.987 149.333 149.333 149.333 149.333-66.987 149.333-149.333-66.987-149.333-149.333-149.333z" />
<glyph unicode="&#xe979;" glyph-name="thumb-down" d="M640 832h-384c-35.413 0-65.707-21.333-78.507-52.053l-128.853-300.8c-3.84-9.813-5.973-20.053-5.973-31.147v-81.493l0.427-0.427-0.427-3.413c0-46.933 38.4-85.333 85.333-85.333h269.227l-40.533-194.987-1.28-13.653c0-17.493 7.253-33.707 18.773-45.227l45.227-44.8 281.173 281.173c15.36 15.36 24.747 36.693 24.747 60.16v426.667c0 46.933-38.4 85.333-85.333 85.333zM810.667 832v-512h170.667v512h-170.667z" />
<glyph unicode="&#xe97a;" glyph-name="thumb-up" d="M42.667 64h170.667v512h-170.667v-512zM981.333 533.333c0 46.933-38.4 85.333-85.333 85.333h-269.227l40.533 194.987 1.28 13.653c0 17.493-7.253 33.707-18.773 45.227l-45.227 44.8-280.747-281.173c-15.787-15.36-25.173-36.693-25.173-60.16v-426.667c0-46.933 38.4-85.333 85.333-85.333h384c35.413 0 65.707 21.333 78.507 52.053l128.853 300.8c3.84 9.813 5.973 20.053 5.973 31.147v81.493l-0.427 0.427 0.427 3.413z" />
<glyph unicode="&#xe97b;" glyph-name="timeline" d="M981.333 618.667c0-46.933-38.4-85.333-85.333-85.333-7.68 0-14.933 0.853-21.76 2.987l-151.893-151.467c2.133-6.827 2.987-14.507 2.987-22.187 0-46.933-38.4-85.333-85.333-85.333s-85.333 38.4-85.333 85.333c0 7.68 0.853 15.36 2.987 22.187l-108.8 108.8c-6.827-2.133-14.507-2.987-22.187-2.987s-15.36 0.853-22.187 2.987l-194.133-194.56c2.133-6.827 2.987-14.080 2.987-21.76 0-46.933-38.4-85.333-85.333-85.333s-85.333 38.4-85.333 85.333 38.4 85.333 85.333 85.333c7.68 0 14.933-0.853 21.76-2.987l194.56 194.133c-2.133 6.827-2.987 14.507-2.987 22.187 0 46.933 38.4 85.333 85.333 85.333s85.333-38.4 85.333-85.333c0-7.68-0.853-15.36-2.987-22.187l108.8-108.8c6.827 2.133 14.507 2.987 22.187 2.987s15.36-0.853 22.187-2.987l151.467 151.893c-2.133 6.827-2.987 14.080-2.987 21.76 0 46.933 38.4 85.333 85.333 85.333s85.333-38.4 85.333-85.333z" />
<glyph unicode="&#xe97c;" glyph-name="today" d="M810.667 832h-42.667v85.333h-85.333v-85.333h-341.333v85.333h-85.333v-85.333h-42.667c-47.36 0-84.907-38.4-84.907-85.333l-0.427-597.333c0-46.933 37.973-85.333 85.333-85.333h597.333c46.933 0 85.333 38.4 85.333 85.333v597.333c0 46.933-38.4 85.333-85.333 85.333zM810.667 149.333h-597.333v469.333h597.333v-469.333zM298.667 533.333h213.333v-213.333h-213.333z" />
<glyph unicode="&#xe97d;" glyph-name="biometric" d="M384 480.427v159.573c0 58.88 47.787 106.667 106.667 106.667s106.667-47.787 106.667-106.667v-159.573c51.627 34.56 85.333 93.013 85.333 159.573 0 106.24-85.76 192-192 192s-192-85.76-192-192c0-66.56 33.707-125.013 85.333-159.573zM803.84 282.88l-193.707 96.427c-7.253 2.987-14.933 4.693-23.040 4.693h-32.427v256c0 35.413-28.587 64-64 64s-64-28.587-64-64v-458.24l-146.347 30.72c-3.413 0.427-6.4 1.28-10.24 1.28-13.227 0-25.173-5.547-33.707-14.080l-33.707-34.133 210.773-210.773c11.52-11.52 27.733-18.773 45.227-18.773h289.707c32 0 56.747 23.467 61.44 54.613l32 224.853c0.427 2.987 0.853 5.973 0.853 8.533 0 26.453-16.213 49.493-38.827 58.88z" />
<glyph unicode="&#xe97e;" glyph-name="trending-down" d="M682.667 192l97.707 97.707-208.213 208.213-170.667-170.667-316.16 316.587 60.16 60.16 256-256 170.667 170.667 268.8-268.373 97.707 97.707v-256z" />
<glyph unicode="&#xe97f;" glyph-name="trending-up" d="M682.667 704l97.707-97.707-208.213-208.213-170.667 170.667-316.16-316.587 60.16-60.16 256 256 170.667-170.667 268.8 268.373 97.707-97.707v256z" />
<glyph unicode="&#xe980;" glyph-name="verified" d="M512 917.333l-384-170.667v-256c0-236.8 163.84-458.24 384-512 220.16 53.76 384 275.2 384 512v256l-384 170.667zM426.667 234.667l-170.667 170.667 60.16 60.16 110.507-110.080 281.173 281.173 60.16-60.587-341.333-341.333z" />
<glyph unicode="&#xe981;" glyph-name="dashboard2" d="M426.667 192h213.333v256h-213.333v-256zM170.667 192h213.333v554.667h-213.333v-554.667zM682.667 192h213.333v256h-213.333v-256zM426.667 746.667v-256h469.333v256h-469.333z" />
<glyph unicode="&#xe982;" glyph-name="view" d="M512 768c-213.333 0-395.52-132.693-469.333-320 73.813-187.307 256-320 469.333-320s395.52 132.693 469.333 320c-73.813 187.307-256 320-469.333 320zM512 234.667c-117.76 0-213.333 95.573-213.333 213.333s95.573 213.333 213.333 213.333 213.333-95.573 213.333-213.333-95.573-213.333-213.333-213.333zM512 576c-70.827 0-128-57.173-128-128s57.173-128 128-128 128 57.173 128 128-57.173 128-128 128z" />
<glyph unicode="&#xe983;" glyph-name="vpn-lock" d="M539.733 533.333c-34.987 99.413-129.707 170.667-241.067 170.667-141.227 0-256-114.773-256-256s114.773-256 256-256c111.36 0 206.080 71.253 241.067 170.667h185.6v-170.667h170.667v170.667h85.333v170.667h-441.6zM298.667 362.667c-46.933 0-85.333 38.4-85.333 85.333s38.4 85.333 85.333 85.333 85.333-38.4 85.333-85.333-38.4-85.333-85.333-85.333z" />
<glyph unicode="&#xe984;" glyph-name="acc" d="M896 192v-42.667c0-46.933-38.4-85.333-85.333-85.333h-597.333c-47.36 0-85.333 38.4-85.333 85.333v597.333c0 46.933 37.973 85.333 85.333 85.333h597.333c46.933 0 85.333-38.4 85.333-85.333v-42.667h-384c-47.36 0-85.333-38.4-85.333-85.333v-341.333c0-46.933 37.973-85.333 85.333-85.333h384zM512 277.333h426.667v341.333h-426.667v-341.333zM682.667 384c-35.413 0-64 28.587-64 64s28.587 64 64 64 64-28.587 64-64-28.587-64-64-64z" />
<glyph unicode="&#xe985;" glyph-name="access" d="M895.785 618.752v42.701l-127.642-85.391-128.082 85.391v-42.701l128.082-85.381 127.642 85.381zM938.476 831.785h-852.951c-46.879 0-85.381-38.083-85.381-85.361v-596.818c0-47.288 38.502-85.381 85.381-85.381h852.961c46.858 0 84.941 38.093 84.941 85.381l0.44 596.818c-0.010 47.278-38.502 85.361-85.391 85.361zM341.238 703.724c71.137 0 128.061-56.924 128.061-127.662 0-70.717-56.924-128.061-128.061-128.061-70.728 0-127.662 57.344-127.662 128.061 0 70.738 56.934 127.662 127.662 127.662zM597.371 191.857h-511.846v42.701c0 85.381 170.762 132.239 255.724 132.239 85.381 0 256.133-46.858 256.133-132.239v-42.701zM938.476 448h-341.115v255.724h341.125v-255.724z" />
<glyph unicode="&#xe986;" glyph-name="account-box" d="M128 746.667v-597.333c0-46.933 37.973-85.333 85.333-85.333h597.333c46.933 0 85.333 38.4 85.333 85.333v597.333c0 46.933-38.4 85.333-85.333 85.333h-597.333c-47.36 0-85.333-38.4-85.333-85.333zM640 576c0-70.827-57.173-128-128-128s-128 57.173-128 128 57.173 128 128 128 128-57.173 128-128zM256 234.667c0 85.333 170.667 132.267 256 132.267s256-46.933 256-132.267v-42.667h-512v42.667z" />
<glyph unicode="&#xe987;" glyph-name="add2" d="M1024 374.857h-438.857v-438.857h-146.286v438.857h-438.857v146.286h438.857v438.857h146.286v-438.857h438.857v-146.286z" />
<glyph unicode="&#xe988;" glyph-name="additional-info" d="M409.6-64h204.8v614.349h-204.8v-614.349zM409.6 755.2h204.8v204.8h-204.8v-204.8z" />
<glyph unicode="&#xe989;" glyph-name="add-person" d="M341.514 511.908h-128.246v128.225h-85.033v-128.236h-128.236v-85.033h128.236v-128.215h85.023v128.215h128.246l0.010 85.043zM768.010 469.146c70.605 0 127.283 57.139 127.283 128.236 0 70.615-56.678 127.764-127.283 127.764-13.937 0-26.911-1.925-38.932-5.755 24.515-34.591 38.441-76.38 38.441-122.010 0-45.64-14.418-86.927-38.441-121.999 12.022-3.83 24.996-6.236 38.932-6.236zM554.752 469.146c70.615 0 127.273 57.139 127.273 128.236 0 70.615-56.648 127.764-127.273 127.764-71.066 0-128.236-57.149-128.236-127.764-0.010-71.096 57.139-128.236 128.236-128.236zM837.161 377.395c35.072-31.181 58.614-71.076 58.614-121.498v-85.043h128.225v85.043c0 65.802-101.335 106.107-186.839 121.498v0zM554.752 384.143c-85.494 0-256.010-42.783-256.010-128.236v-85.043h512v85.033c0 85.463-170.988 128.246-255.99 128.246z" />
<glyph unicode="&#xe98a;" glyph-name="address2" d="M409.641 12.943v307.098h204.739v-307.098h255.918v409.477h153.539l-511.826 460.636-511.846-460.636h153.559v-409.477z" />
<glyph unicode="&#xe98b;" glyph-name="assets" d="M93.266 727.306h837.478v93.102h-837.478c-51.354 0-93.102-42.168-93.102-93.102v-558.602c0-50.924 41.748-93.102 93.102-93.102h186.204v93.102h-186.204v558.602zM558.346 448h-185.774v-82.668c-28.375-25.876-46.756-62.198-46.756-103.537s18.381-77.64 46.756-103.096v-83.077h185.784v83.077c28.375 25.457 46.746 62.177 46.746 103.096s-18.371 77.66-46.746 103.537v82.668zM465.674 192.082c-38.82 0-70.134 31.304-70.134 69.724 0 38.82 31.314 69.745 70.134 69.745 38.42 0 69.745-30.925 69.745-69.745-0.020-38.431-31.324-69.724-69.745-69.724zM977.5 634.204h-279.286c-23.378 0-46.746-23.378-46.746-46.746v-465.070c0-23.378 23.368-46.756 46.746-46.756h279.286c22.968 0 46.326 23.378 46.326 46.756v465.070c0 23.368-23.357 46.746-46.326 46.746v0zM930.755 168.704h-186.214v372.398h186.214v-372.398z" />
<glyph unicode="&#xe98c;" glyph-name="attach-icon" d="M698.225 727.491v-535.46c0-102.625-83.579-185.815-186.214-185.815-103.035 0-186.194 83.159-186.194 185.815v582.113c0 64.102 51.917 116.019 116.419 116.019 64.102 0 116.019-51.917 116.019-116.019v-488.806c0-25.559-20.695-46.674-46.254-46.674s-46.653 21.115-46.653 46.674v442.163h-69.775v-442.163c0-64.092 51.927-116.429 116.429-116.429 64.102 0 116.429 52.337 116.429 116.429v488.806c0 102.636-83.569 185.805-186.204 185.805-103.045 0-186.214-83.159-186.214-185.805v-582.113c0-141.169 114.391-255.969 255.969-255.969 141.169 0 255.969 114.801 255.969 255.969v535.46h-69.724z" />
<glyph unicode="&#xe98d;" glyph-name="attendance2" d="M981.176 725.545v-619.080c0-93.727-76.585-170.322-170.322-170.322h-311.859c-45.937 0-89.58 18.125-121.58 50.575l-334.592 340.634c0 0 53.361 52.429 55.224 53.371 9.277 7.895 20.879 12.063 33.884 12.063 9.288 0 17.644-2.314 25.528-6.513 1.853-0.461 183.747-105.308 183.747-105.308v508.59c0 35.267 28.795 63.58 64.061 63.58 35.277 0 64.041-28.314 64.041-63.58v-298.854h42.691v405.115c0 35.738 28.785 64.041 64.041 64.041 35.277 0 64.041-28.314 64.041-64.041v-405.115h42.701v362.435c0 35.727 28.324 64.041 64.041 64.041 35.256 0 64.041-28.314 64.041-64.041v-362.435h42.701v234.824c0 35.267 28.314 64.041 64.041 64.041 35.256 0.010 63.57-28.764 63.57-64.020v0z" />
<glyph unicode="&#xe98e;" glyph-name="attendance-01" d="M195.922 626.309c2.406-14.531 8.008-23.726 13.558-29.532 13.169-87.695 86.477-169.103 153.528-169.103 78.131 0 149.299 88.105 162.99 168.919 5.683 5.734 11.336 14.991 13.824 29.716 4.444 16.425 10.179 44.974 0.143 58.388-0.522 0.655-1.096 1.372-1.638 1.905 9.462 34.468 21.381 105.759-21.299 154.307-3.779 4.833-27.761 33.434-78.92 48.548l-24.443 8.397c-40.284 12.462-65.556 15.247-66.673 15.38-1.823 0.143-3.717 0-5.468-0.44-1.382-0.399-6.185-1.7-9.912-1.178-9.636 1.372-24.105-3.604-26.655-4.557-3.318-1.362-81.326-32.584-104.98-105.247-2.212-5.847-11.684-36.751 0.911-112.486-1.905-1.28-3.594-2.857-5.018-4.741-10.179-13.312-4.434-41.851 0.051-58.276zM507.945 73.431c-14.397 8.079-30.044 15.821-46.725 23.183-8.079 3.625-16.292 6.994-24.443 10.168-6.39 2.417-13.937 5.54-19.22 6.912l-77.292 20.859 144.599 294.42 61.972-39.086c13.097-8.212 22.743-15.186 33.3-22.927l2.243-1.649c10.476-7.752 20.756-15.698 30.884-23.9 21.975-17.725 41.359-35.062 59.443-52.992 1.362-1.372 2.683-2.611 4.045-3.983 6.062 6.707 11.981 12.698 17.92 19.169-7.557 22.477-16.742 43.274-27.955 59.945 0 0-15.903 21.688-53.617 36.178 0 0-3.205 0.973-8.059 2.591-33.577 15.708-65.444 25.815-65.444 25.815-6.861 2.468-12.861 4.895-18.278 7.229-22.794 11.284-41.759 23.992-45.65 35.983 0 0 13.158-127.416-98.212-130.406l-15.514 0.717c-100.936 8.98-107.663 129.935-107.663 129.935-10.557-33.178-137.503-71.731-137.503-71.731-37.745-14.479-53.699-36.25-53.699-36.25-55.788-82.749-62.362-266.906-62.362-266.906 0.707-42.086 18.903-46.459 18.903-46.459 128.307-57.303 329.615-67.379 329.615-67.379 10.875-0.256 20.972 0.317 31.078 0.922l0.256-1.065c0 0 98.263 5.007 201.298 27.556l-12.585 16.476c-10.24 13.496-33.126 30.894-61.338 46.674zM471.327 465.92c1.362 1.761 2.857 3.533 4.301 5.489-0.338 1.167-0.399 1.751-0.399 1.751-1.229-2.55-2.673-4.69-3.901-7.24zM254.833 471.788l-0.328 1.372-0.256-1.434c0.061 0.246 0.328 0.532 0.399 0.788 0.061-0.072 0.123-0.328 0.184-0.727zM905.339 412.682c-36.557-25.805-70.636-55.009-103.096-85.699-32.502-30.884-63.345-63.386-92.979-96.973-11.018-12.524-21.699-25.16-32.317-37.868-0.143 0.215-0.256 0.399-0.338 0.604-15.636 20.879-32.584 39.444-50.176 56.842-17.582 17.326-35.82 33.352-54.6 48.609-9.441 7.547-18.985 15.002-28.682 22.303-10.097 7.291-18.964 13.875-31.334 21.688l-77.046-156.744c7.045-1.915 17.285-5.847 25.938-9.257 9.175-3.512 18.166-7.291 27.167-11.274 17.992-7.936 35.512-16.599 52.275-25.928 33.096-18.524 63.918-41.073 81.521-64.061l59.238-77.691 34.079 73.912c17.142 37.007 37.683 75.735 58.696 112.609 21.238 37.151 43.919 73.564 68.495 108.687 24.556 35.144 50.883 69.079 80.364 100.372 29.44 31.089 61.942 60.006 100.741 80.527-42.107-12.503-81.459-35.113-117.944-60.662z" />
<glyph unicode="&#xe98f;" glyph-name="background-verification" d="M512 960.901l-419.697-186.409v-279.613c0-258.775 178.903-500.756 419.697-559.78 240.824 59.023 419.697 301.005 419.697 559.78v279.613l-419.697 186.409zM418.785 214.702l-186.399 186.399 65.423 65.997 120.975-120.392 307.395 307.395 65.403-65.997-372.797-373.402z" />
<glyph unicode="&#xe990;" glyph-name="background-verification-download" d="M934.42 598.712h-241.306v361.626h-362.23v-361.626h-241.306l422.42-422.431 422.42 422.431zM89.58 55.982v-120.32h844.82v120.32h-844.82z" />
<glyph unicode="&#xe991;" glyph-name="bank-deails" d="M969.943 124.498v-54.016c0-58.88-48.353-107.622-107.633-107.622h-754.627c-59.699 0-107.633 48.742-107.633 107.622v754.627c0 59.29 47.933 108.032 107.633 108.032h754.627c59.279 0 107.633-48.742 107.633-108.032v-54.016h-484.946c-60.109 0-108.042-48.343-108.042-107.633v-430.94c0-59.279 47.944-108.022 108.042-108.022h484.946zM484.977 232.54h538.972v430.93h-538.972v-430.93zM700.652 366.981c-45.066 0-81.234 36.137-81.234 80.824 0 44.667 36.137 80.835 81.234 80.835 44.687 0 80.835-36.147 80.835-80.835s-36.147-80.824-80.835-80.824z" />
<glyph unicode="&#xe992;" glyph-name="behance-logo" d="M924.611 676.332h-256.502v63.713h256.522v-63.713h-0.020zM497.357 415.089c16.548-25.641 24.812-56.771 24.812-93.297 0-37.796-9.318-71.7-28.293-101.642-12.073-19.825-27.054-36.557-45.056-50.043-20.275-15.575-44.288-26.255-71.875-31.98-27.689-5.724-57.651-8.602-89.938-8.602h-286.853v636.959h307.62c77.527-1.26 132.506-23.726 164.966-67.84 19.476-27.054 29.123-59.525 29.123-97.27 0-38.943-9.769-70.103-29.43-93.778-10.947-13.271-27.105-25.344-48.497-36.239 32.399-11.868 56.996-30.556 73.421-56.269zM147.046 515.359h134.789c27.709 0 50.094 5.263 67.338 15.78 17.224 10.516 25.836 29.194 25.836 56.013 0 29.635-11.377 49.306-34.212 58.757-19.62 6.574-44.728 9.964-75.192 9.964h-118.548v-140.513zM387.983 330.885c0 33.075-13.527 55.951-40.509 68.219-15.104 6.984-36.393 10.557-63.703 10.803h-136.724v-169.759h134.605c27.648 0 49.060 3.635 64.502 11.192 27.863 13.875 41.83 40.305 41.83 79.544zM1019.771 434.504c3.103-20.838 4.506-51.077 3.942-90.604h-332.186c1.833-45.865 17.654-77.916 47.688-96.256 18.094-11.52 40.038-17.121 65.761-17.121 27.095 0 49.183 6.84 66.181 20.92 9.277 7.465 17.439 18.002 24.515 31.304h121.764c-3.185-27.085-17.838-54.538-44.186-82.463-40.817-44.36-98.068-66.601-171.592-66.601-60.754 0-114.268 18.76-160.727 56.136-46.316 37.519-69.56 98.355-69.56 182.784 0 79.145 20.869 139.735 62.781 181.893 42.056 42.24 96.307 63.273 163.215 63.273 39.649 0 75.387-7.086 107.284-21.34 31.795-14.264 58.071-36.71 78.756-67.564 18.719-27.156 30.771-58.583 36.362-94.362zM899.922 422.605c-2.232 31.713-12.81 55.716-31.867 72.11-18.913 16.445-42.527 24.709-70.697 24.709-30.669 0-54.344-8.827-71.178-26.163-16.937-17.316-27.484-40.847-31.795-70.646l205.537-0.010z" />
<glyph unicode="&#xe993;" glyph-name="bitrthday-icon" d="M512 680.745c51.671 0 93.102 41.882 93.102 93.082 0 17.695-4.639 33.966-13.517 47.944l-79.585 138.23-79.616-138.24c-8.837-13.967-13.496-30.259-13.496-47.944-0.010-51.21 41.892-93.071 93.112-93.071v0 0zM726.17 215.736l-49.818 49.797-50.289-49.797c-60.518-60.518-166.656-60.938-227.676 0l-49.807 49.797-50.749-49.797c-30.259-30.239-70.779-47.022-113.603-47.022-33.987 0-65.178 10.721-91.259 28.396v-214.579c0-25.6 20.951-46.541 46.572-46.541h744.929c25.61 0 46.582 20.941 46.582 46.541v214.589c-26.081-17.705-57.293-28.396-91.259-28.396-42.854 0.020-83.374 16.773-113.623 47.012v0 0zM791.337 541.082c77.302 0 139.704-62.351 139.223-139.622l0.020-71.68c0-50.278-40.98-91.238-91.269-91.238-24.187 0-47.022 9.318-64.246 26.542l-99.174 99.164-99.625-99.164c-34.447-34.437-94.505-34.437-128.983 0l-99.164 99.164-99.635-99.164c-16.773-17.224-40.038-26.542-64.246-26.542-50.278 0-91.259 40.96-91.259 91.238v71.7c0 77.24 62.392 139.612 139.694 139.612h232.776v93.092h93.133v-93.102h232.755z" />
<glyph unicode="&#xe994;" glyph-name="box" d="M948.437-58.24h-872.875c-38.485 0-69.76 31.317-69.76 69.845v872.832c0 38.485 31.275 69.803 69.76 69.803h872.875c38.485 0 69.803-31.317 69.803-69.803v-872.875c-0.043-38.485-31.317-69.803-69.803-69.803zM75.563 911.573c-14.933 0-27.093-12.203-27.093-27.136v-872.875c0-15.019 12.16-27.179 27.093-27.179h872.875c14.976 0 27.136 12.16 27.136 27.179v872.875c0 14.976-12.16 27.136-27.136 27.136h-872.875z" />
<glyph unicode="&#xe995;" glyph-name="calendar-01" d="M359.69 498.78h-101.571v-101.56h101.571v101.56zM562.801 498.78h-101.56v-101.56h101.56v101.56zM765.87 498.78h-101.53v-101.56h101.53v101.56zM867.43 854.2h-50.78v100.956h-101.56v-100.956h-406.2v100.956h-101.54v-100.956h-50.78c-55.951 0-100.956-46.162-100.956-101.581v-710.799c0-55.398 45.015-100.977 100.956-100.977h710.84c55.409 0 100.977 45.558 100.977 100.977v710.799c0 55.419-45.548 101.581-100.956 101.581zM867.43 41.82h-710.851v558.5h710.851v-558.5z" />
<glyph unicode="&#xe996;" glyph-name="calendar-02" d="M870.359 857.62h-51.261v102.062h-102.513v-102.062h-409.17v102.062h-102.513v-102.062h-51.261c-56.852 0-101.591-46.131-101.591-102.523l-0.932-716.718c0-55.921 45.67-102.062 102.523-102.062h716.718c56.381 0 102.523 46.141 102.523 102.062v716.718c0 56.392-46.141 102.523-102.523 102.523zM870.359 38.38h-716.718v563.405h716.718v-563.405z" />
<glyph unicode="&#xe997;" glyph-name="card-icon" d="M930.724 866.724h-837.427c-51.2 0-93.061-41.882-93.061-93.041v-651.325c0-51.18 41.882-93.051 93.061-93.051l837.417-0.020c51.18 0 93.041 41.892 93.041 93.041v651.356c-0.010 51.169-41.871 93.041-93.030 93.041v0zM930.724 122.317h-837.427v139.581h837.417v-139.581z" />
<glyph unicode="&#xe998;" glyph-name="check-circle-outline" d="M512 874.667c235.641 0 426.667-191.025 426.667-426.667s-191.025-426.667-426.667-426.667c-235.641 0-426.667 191.025-426.667 426.667s191.025 426.667 426.667 426.667zM512 789.333c-188.513 0-341.333-152.82-341.333-341.333s152.82-341.333 341.333-341.333c188.513 0 341.333 152.82 341.333 341.333s-152.82 341.333-341.333 341.333zM469.333 256l-192 192 60.16 60.16 131.84-131.413 238.507 238.080 60.16-60.16-298.667-298.667z" />
<glyph unicode="&#xe999;" glyph-name="close" d="M1022.188 855.357l-102.84 102.83-407.347-407.368-407.357 407.368-102.83-102.83 407.368-407.357-407.368-407.357 102.83-102.83 407.357 407.368 407.347-407.368 102.84 102.83-407.368 407.357z" />
<glyph unicode="&#xe99a;" glyph-name="close-circle-outline" d="M512 106.667c-188.16 0-341.333 153.173-341.333 341.333s153.173 341.333 341.333 341.333c188.16 0 341.333-153.173 341.333-341.333s-153.173-341.333-341.333-341.333zM512 874.667c-235.947 0-426.667-190.72-426.667-426.667s190.72-426.667 426.667-426.667c235.947 0 426.667 190.72 426.667 426.667s-190.72 426.667-426.667 426.667zM622.507 618.667l-110.507-110.507-110.507 110.507-60.16-60.16 110.507-110.507-110.507-110.507 60.16-60.16 110.507 110.507 110.507-110.507 60.16 60.16-110.507 110.507 110.507 110.507-60.16 60.16z" />
<glyph unicode="&#xe99b;" glyph-name="complete" d="M869.519 856.453h-213.555c-21.238 59.341-77.66 102.195-143.964 102.195s-122.716-42.865-143.964-102.195h-213.565c-56.044 0-102.195-45.793-102.195-102.205v-714.68c0-56.054 46.152-102.205 102.195-102.205h715.049c56.054 0 102.205 46.162 102.205 102.205v714.68c0.010 56.412-46.152 102.205-102.205 102.205zM512 856.453c28.201 0 50.924-23.081 50.924-50.924 0-28.211-22.723-51.292-50.924-51.292-28.211 0-50.924 23.081-50.924 51.292 0 27.843 22.712 50.924 50.924 50.924zM409.795 141.763l-204.042 204.042 71.803 72.161 132.239-131.871 336.64 336.64 71.803-72.53-408.443-408.443z" />
<glyph unicode="&#xe99c;" d="M335.432 954.931c200.591 0 308.828-63.416 308.828-89.334 0-25.958-108.237-89.385-308.828-89.385-200.653 0-308.838 63.468-308.838 89.385-0.020 25.866 108.206 89.334 308.838 89.334z" />
<glyph unicode="&#xe99d;" d="M335.401 682.977c115.251 0 231.219 20.9 308.859 61.491v-87.235c0-25.917-108.268-89.385-308.859-89.385-200.622 0-308.828 63.468-308.828 89.385v87.235c77.609-40.591 193.597-61.491 308.828-61.491z" />
<glyph unicode="&#xe99e;" d="M26.573 536.166c77.609-40.684 193.597-61.583 308.828-61.583 115.251 0 231.199 20.9 308.859 61.583v-77.476c0-25.958-108.268-89.385-308.859-89.385-200.622 0-308.828 63.427-308.828 89.385v77.476z" />
<glyph unicode="&#xe99f;" d="M753.603-58.931c-132.823 0-240.947 106.793-243.589 239.012-46.725-11.1-104.94-18.76-174.582-18.76-200.632 0-308.808 63.375-308.808 89.293v86.968c77.568-40.643 193.556-61.594 308.808-61.594 70.339 0 140.923 7.844 202.906 23.235 41.021 76.943 122.102 129.526 215.255 129.526 134.42 0 243.825-109.343 243.825-243.886 0-134.451-109.394-243.794-243.814-243.794z" />
<glyph unicode="&#xe9a0;" d="M747.796 224.696c-39.219 4.7-59.156 10.25-59.156 27.884 0 26.409 35.502 30.351 56.658 30.351 25.037 0 52.797-12.134 61.819-27.034l3.564-5.96 57.283 26.501-3.482 7.158c-20.142 41.175-55.921 53.535-83.476 58.634v36.444h-66.959v-36.26c-59.044-9.216-93.983-42.435-93.983-89.784 0-77.926 73.103-86.211 121.457-91.576 44.001-5.192 64.481-15.749 64.481-33.208 0-33.659-47.698-36.301-62.3-36.301-32.778 0-64.379 16.251-73.482 37.734l-3 7.209-62.136-26.358 3.041-7.209c17.5-40.909 54.958-66.734 105.943-73.134v-39.26h66.959v41.226c48.896 5.99 95.98 37.284 95.98 96.143 0 80.876-77.722 90.44-129.208 96.799z" />
<glyph unicode="&#xe9a1;" glyph-name="dashboard3" d="M512 938c-270.2 0-490-219.8-490-490 0-120.4 43.6-230.8 116-316.2l-104-104c-16-16-16-41.8 0-57.8s41.8-16 57.8 0l104 104c85.4-72.4 195.8-116 316.2-116 270.2 0 490 219.8 490 490s-219.8 490-490 490zM512 39.6c-98 0-187.8 34.6-258.2 92.4l224 224c10.6-4 22.2-6.2 34.4-6.2 54.2 0 98.2 44 98.2 98.2s-44 98.2-98.2 98.2-98.2-44-98.2-98.2c0-12 2.2-23.6 6.2-34.4l-224-224c-57.8 70.6-92.6 160.4-92.6 258.4 0 225.2 183.2 408.4 408.4 408.4s408.4-183.2 408.4-408.4c0-225.2-183.2-408.4-408.4-408.4z" />
<glyph unicode="&#xe9a2;" glyph-name="deductions" d="M391.096 671.252c11.858 25.518 18.565 53.617 18.565 84.050 0 113.172-91.771 204.698-204.954 204.698s-204.708-91.525-204.708-204.698c0-113.172 91.525-204.954 204.698-204.954 30.423 0 58.522 6.687 84.040 18.565l120.924-120.914-120.924-120.924c-25.508 11.858-53.606 18.565-84.040 18.565-113.172 0-204.698-91.781-204.698-204.984 0-113.152 91.525-204.657 204.698-204.657s204.954 91.505 204.954 204.657c0 30.454-6.707 58.542-18.565 84.060l120.914 120.924 358.349-358.359h153.651v51.057l-632.904 632.914zM204.698 652.698c-56.207 0-102.349 45.619-102.349 102.605 0 56.719 46.141 102.349 102.349 102.349 56.463 0 102.605-45.629 102.605-102.349 0-56.986-46.141-102.605-102.605-102.605zM204.698 38.339c-56.207 0-102.349 45.619-102.349 102.318 0 56.975 46.141 102.615 102.349 102.615 56.463 0 102.605-45.64 102.605-102.615 0-56.699-46.141-102.318-102.605-102.318zM512 422.461c-14.438 0-25.528 11.1-25.528 25.528 0 14.438 11.090 25.528 25.528 25.528s25.539-11.090 25.539-25.528c0-14.428-11.1-25.528-25.539-25.528zM870.349 908.698l-307.026-307.046 102.339-102.349 358.339 358.349v51.046h-153.651z" />
<glyph unicode="&#xe9a3;" glyph-name="down-arrow" d="M1013.535 711.393c-14.121 14.121-37.069 14.121-51.19 0l-449.853-450.898-450.734 450.888c-14.111 14.121-37.059 14.121-51.169 0-14.121-14.111-14.121-37.069 0-51.19l475.423-475.566c7.055-7.055 15.892-10.609 25.58-10.609 8.837 0 18.534 3.553 25.59 10.609l475.453 475.576c14.991 14.121 14.991 37.069 0.901 51.19z" />
<glyph unicode="&#xe9a4;" glyph-name="dropbox-logo" d="M301.558 198.175l210.442 175.37-303.974 187.689-207.985-166.769zM512 373.565l211.046-175.391 300.913 196.311-207.974 166.748zM513.239 335.401v1.239l-0.614-0.625-0.625 0.625v-1.239l-210.442-174.746-90.45 59.054v-66.437l300.892-180.316v-0.625l0.625 0.625 0.614-0.625v0.625l301.507 180.316v66.437l-90.46-59.054zM0.041 727.378l207.985-166.144 303.974 187.064-210.442 175.38zM723.046 923.679l-211.046-175.38 303.985-187.064 207.974 166.144z" />
<glyph unicode="&#xe9a5;" glyph-name="edit" d="M4.956 152.197v-211.261h211.251l622.735 622.715-211.292 211.282-622.694-622.735zM1002.455 727.194c22.118 22.118 22.118 57.62 0 79.155l-132.096 132.106c-21.545 22.118-57.037 22.118-79.145 0l-103.014-102.994 211.282-211.272 102.973 103.004z" />
<glyph unicode="&#xe9a6;" glyph-name="employee-master" d="M897.085 959.293h-539.238c-29.594 0-55.562-15.36-70.605-38.482h49.705c6.431 2.918 13.394 4.792 20.9 4.792h539.228c27.863 0 50.524-22.661 50.524-50.534v-700.17c0-25.682-19.497-46.121-44.298-49.295-1.638-12.759-5.878-24.637-12.595-34.898h6.38c46.479 0 84.265 37.765 84.265 84.204v700.191c-0.010 46.408-37.786 84.193-84.265 84.193zM781.609 882.33h-539.208c-29.583 0-55.562-15.391-70.615-38.502h49.725c6.431 2.918 13.384 4.803 20.9 4.803h539.208c27.945 0 50.575-22.661 50.575-50.555v-700.18c0-25.661-19.517-46.039-44.298-49.244-1.638-12.739-5.898-24.637-12.585-34.959h6.318c46.52 0 84.337 37.765 84.337 84.275v700.109c-0.061 46.459-37.847 84.255-84.357 84.255zM666.143 805.345h-539.208c-46.479 0-84.265-37.755-84.265-84.234v-700.18c0-46.438 37.786-84.244 84.265-84.244h539.208c46.5 0 84.337 37.765 84.337 84.244v700.18c0 46.449-37.837 84.234-84.337 84.234zM716.728 20.941c0-27.863-22.661-50.565-50.575-50.565h-539.218c-27.904 0-50.575 22.682-50.575 50.565v700.17c0 27.863 22.661 50.555 50.575 50.555h539.208c27.924 0 50.575-22.692 50.575-50.555v-700.17zM448.072 358.533c37.786 25.364 63.826 75.54 63.826 120.678 0 63.734-51.579 115.415-115.343 115.415-63.734 0-115.333-51.692-115.333-115.415 0-45.138 26.030-95.324 63.724-120.678-90.245-22.897-157.235-101.437-157.235-159.601 0-68.721 417.782-68.721 417.782 0-0.051 58.163-67.011 136.704-157.42 159.601zM396.554 147.456l-58.593 58.46 49.265 119.101h-0.522l-19.118 21.996c9.298-3.318 18.872-5.356 28.928-5.356 10.066 0 19.61 1.997 28.877 5.263l-19.159-21.862h-0.42l49.295-119.101-58.552-58.501z" />
<glyph unicode="&#xe9a7;" glyph-name="exclamation-point" d="M512 960c-282.317 0-512-229.673-512-512 0-282.317 229.683-512 512-512 282.327 0 512 229.683 512 512 0 282.327-229.673 512-512 512zM512 12.933c-239.903 0-435.067 195.174-435.067 435.067 0 239.903 195.174 435.077 435.067 435.077 239.913 0 435.077-195.174 435.077-435.077s-195.164-435.067-435.077-435.067zM452.065 720.22h119.869v-384.594h-119.869v384.594zM452.065 270.664h119.869v-94.894h-119.869v94.894z" />
<glyph unicode="&#xe9a8;" glyph-name="family-details" d="M742.461 448.010c70.779 0 127.324 57.364 127.324 128.154 0 70.38-56.535 127.754-127.324 127.754s-128.184-57.375-128.184-127.754c0-70.789 57.395-128.154 128.184-128.154v0zM358.41 499.272c85.023 0 152.975 68.751 152.975 153.805 0 84.613-67.922 153.364-152.975 153.364s-153.774-68.751-153.774-153.364c0-85.053 68.751-153.805 153.774-153.805zM742.461 345.498c-93.594 0-281.518-47.217-281.518-140.759v-115.118h563.057v115.118c-0.051 93.563-187.945 140.759-281.539 140.759v0zM358.41 396.759c-119.204 0-358.41-59.822-358.41-179.016v-128.184h358.41v115.149c0 43.52 16.671 120.003 121.221 177.766-44.329 9.421-87.46 14.285-121.221 14.285z" />
<glyph unicode="&#xe9a9;" glyph-name="fill-box" d="M1013.333-3.243c0-27.648-22.4-50.133-50.133-50.133h-902.443c-27.648 0-50.091 22.443-50.091 50.133v902.485c0 27.648 22.4 50.133 50.091 50.133h902.443c27.691 0 50.133-22.443 50.133-50.133v-902.485z" />
<glyph unicode="&#xe9aa;" glyph-name="generic-photo" d="M512 801.536c-195.328 0-353.536-158.208-353.536-353.536s158.208-353.792 353.536-353.792c195.328 0 353.792 158.464 353.792 353.792s-158.464 353.536-353.792 353.536zM512 695.552c58.624 0 105.984-47.36 105.984-105.984 0-58.88-47.36-106.24-105.984-106.24s-105.984 47.36-105.984 106.24c0 58.624 47.36 105.984 105.984 105.984zM512 193.28c-88.32 0-166.656 45.312-212.224 113.92 1.024 70.4 141.568 109.056 212.224 109.056 70.4 0 211.2-38.656 212.224-109.056-45.568-68.608-123.904-113.92-212.224-113.92z" />
<glyph unicode="&#xe9ab;" glyph-name="gmail-logo" d="M921.6 858.44h-819.2c-56.32 0-102.4-46.172-102.4-102.615v-615.66c0-56.443 46.080-102.615 102.4-102.615h819.2c56.32 0 102.4 46.172 102.4 102.615v615.66c0 56.443-46.080 102.615-102.4 102.615zM921.6 140.165h-102.39v451.492l-307.21-194.959-307.2 194.959v-451.492h-102.4v615.66h61.44l348.16-215.48 348.16 215.48h61.44v-615.66z" />
<glyph unicode="&#xe9ac;" glyph-name="hamburger" d="M0 106.667h1024v113.778h-1024v-113.778zM0 391.111h1024v113.778h-1024v-113.778zM0 789.333v-113.778h1024v113.778h-1024z" />
<glyph unicode="&#xe9ad;" glyph-name="health-details" d="M972.943 755.057h-135.24l58.235 161.024-120.279 43.919-74.916-204.943h-649.687v-102.124l102.472-307.415-102.472-307.046v-102.472h921.876v102.124l-102.461 307.415 102.472 307.405v102.113zM716.759 294.287h-153.702v-153.713h-102.472v153.713h-153.354v102.472h153.354v153.713h102.482v-153.713h153.702v-102.472z" />
<glyph unicode="&#xe9ae;" glyph-name="help" d="M512 958.505c-281.6 0-510.505-228.905-510.505-510.505s228.905-510.505 510.505-510.505 510.505 228.905 510.505 510.505c0 281.59-228.905 510.505-510.505 510.505zM562.985 90.808h-101.939v101.929h101.939v-101.929zM668.805 486.431l-46.234-47.073c-36.71-37.161-59.587-67.82-59.587-144.701h-101.939v25.917c0 56.125 22.886 107.1 59.597 144.261l63.488 64.358c18.565 18.135 29.798 44.042 29.798 72.12 0 56.136-45.793 101.919-101.929 101.919s-101.929-45.783-101.929-101.919h-102.359c0 112.722 91.566 203.858 204.288 203.858s204.298-91.126 204.298-203.848c0-44.923-18.575-85.955-47.493-114.893v0z" />
<glyph unicode="&#xe9af;" glyph-name="icon-delete" d="M170.667 49.778c0-62.578 51.2-113.778 113.778-113.778h455.111c62.578 0 113.778 51.2 113.778 113.778v682.667h-682.667v-682.667zM910.222 903.111h-199.111l-56.889 56.889h-284.444l-56.889-56.889h-199.111v-113.778h796.444v113.778z" />
<glyph unicode="&#xe9b0;" glyph-name="instagram-symbol" d="M985.313 921.293c-25.795 25.784-56.668 38.666-92.652 38.666h-761.293c-36.004 0-66.877-12.892-92.662-38.666s-38.666-56.658-38.666-92.652v-761.272c0-35.994 12.882-66.888 38.666-92.662s56.678-38.666 92.662-38.666h761.272c35.983 0 66.877 12.902 92.672 38.666 25.774 25.774 38.646 56.668 38.646 92.662v761.272c0 35.994-12.882 66.867-38.646 92.652zM367.688 590.991c40.223 38.871 88.545 58.327 144.988 58.327 56.873 0 105.411-19.446 145.644-58.327s60.344-85.883 60.344-140.995c0-55.091-20.111-102.103-60.344-140.974-40.233-38.902-88.75-58.348-145.644-58.348-56.433 0-104.765 19.466-144.988 58.348-40.223 38.871-60.334 85.883-60.334 140.974 0 55.112 20.111 102.103 60.334 140.995zM907.981 94.689c0-11.551-4.014-21.207-12.001-28.989-8.008-7.772-17.562-11.663-28.682-11.663h-712.591c-11.551 0-21.228 3.891-29 11.663-7.782 7.772-11.674 17.439-11.674 28.989v431.985h93.983c-8.878-28.006-13.322-57.119-13.322-87.337 0-85.34 31.099-158.106 93.317-218.317 62.228-60.221 137.103-90.337 224.655-90.337 57.774 0 111.104 13.783 160 41.339 48.876 27.556 87.511 65.004 115.988 112.343 28.426 47.319 42.65 98.99 42.65 154.982 0 30.208-4.454 59.32-13.343 87.327h89.999v-431.985h0.020zM907.981 689.992c0-12.882-4.454-23.777-13.343-32.666-8.888-8.899-19.773-13.332-32.655-13.332h-115.988c-12.892 0-23.788 4.444-32.655 13.332-8.888 8.888-13.332 19.784-13.332 32.666v109.988c0 12.442 4.444 23.214 13.332 32.328 8.868 9.103 19.773 13.66 32.655 13.66h115.988c12.892 0 23.767-4.557 32.655-13.66 8.888-9.114 13.343-19.886 13.343-32.328v-109.988z" />
<glyph unicode="&#xe9b1;" glyph-name="insurance" d="M921.59 729.61h-153.467v102.441c0 56.986-45.681 102.431-102.4 102.431h-307.446c-56.719 0-102.4-45.445-102.4-102.431v-102.441h-153.477c-56.975 0-102.4-45.435-102.4-102.42v-563.251c0-56.996 45.681-102.42 102.4-102.42h819.19c56.965 0 102.41 45.425 102.41 102.42v563.251c0 56.986-45.435 102.42-102.41 102.42v0zM358.257 832.051h307.446v-102.441h-307.446v102.441zM921.59 63.939h-819.19v102.42h819.19v-102.42zM921.59 319.877h-819.19v307.313h153.457v-102.441h102.4v102.441h307.446v-102.441h102.42v102.441h153.457l0.010-307.313z" />
<glyph unicode="&#xe9b2;" glyph-name="Languages" d="M511.304 960c-282.747 0-511.304-229.601-511.304-512 0-282.737 228.557-512 511.304-512 283.095 0 512.696 229.263 512.696 512 0 282.399-229.612 512-512.696 512zM866.304 652.585h-151.101c-16.343 63.918-39.936 125.399-70.861 182.374 94.474-32.307 172.636-97.956 221.962-182.374zM512 855.45c42.404-61.481 75.725-129.567 97.577-202.875h-195.533c21.873 73.308 55.235 141.394 97.956 202.875zM115.671 345.528c-8.335 32.655-13.548 67.052-13.548 102.472 0 35.082 5.222 69.468 13.548 102.144h172.995c-4.168-33.7-7.301-67.4-7.301-102.144 0-35.082 3.123-68.782 7.301-102.472h-172.995zM157.696 243.057h150.753c16.671-63.898 39.946-125.379 70.861-182.374-94.126 32.328-172.626 97.29-221.614 182.374zM308.449 652.585h-150.753c48.978 85.115 127.478 150.057 221.624 182.374-30.945-56.975-54.2-118.456-70.871-182.374zM512 40.212c-42.721 61.491-76.083 129.567-97.935 202.875h195.543c-21.883-73.308-55.224-141.384-97.608-202.875zM631.828 345.528h-239.667c-4.864 33.69-8.325 67.389-8.325 102.472 0 34.744 3.461 69.12 8.325 102.144h239.667c4.506-33.014 7.987-67.4 7.987-102.144 0-35.082-3.471-68.782-7.987-102.472zM644.342 60.703c30.925 56.975 54.528 118.456 70.861 182.385h151.101c-49.326-84.429-127.488-150.077-221.962-182.385zM734.976 345.528c4.178 33.69 7.301 67.389 7.301 102.472 0 34.744-3.103 68.444-7.301 102.144h173.005c8.335-32.655 13.548-67.052 13.548-102.144 0-35.42-5.212-69.796-13.548-102.472h-173.005z" />
<glyph unicode="&#xe9b3;" glyph-name="learning" d="M956.959 460.595h-41.206v123.433c0 10.025-4.485 19.548-12.349 25.897-61.327 49.9-129.198 75.203-201.748 75.203-2.529 0-5.018-0.061-7.485-0.133 1.034 8.151 1.669 16.435 1.669 24.863 0 110.469-89.457 200.038-200.028 200.038-110.52 0.010-200.069-89.539-200.069-200.028 0-8.428 0.625-16.671 1.638-24.801-70.226-1.475-136.366-26.716-196.035-75.172-7.823-6.318-12.657-15.841-12.657-25.897v-123.433h-20.869c-36.833 0-66.918-30.659-66.918-67.502v-66.703c0-36.762 30.085-65.864 66.918-65.864h20.9v-241.142c0-12.657 7.465-24.177 18.749-29.798 4.71-2.345 9.994-3.461 15.124-3.461 7.045 0 14.141 2.099 20.009 6.564 0.655 0.481 63.396 46.418 162.058 46.418 57.201 0 115.313-14.899 171.674-46.356 19.773-10.998 44.37-4.516 52.511 0 56.658 30.72 114.473 46.356 171.633 46.356 97.075 0 160.973-45.619 162.181-46.52 5.888-4.362 12.79-6.461 19.763-6.461 5.018 0 10.23 1.116 14.807 3.461 11.336 5.622 18.381 17.142 18.381 29.798v241.152h41.308c36.844 0 66.181 29.102 66.181 65.864v66.703c-0.051 36.833-29.307 67.523-66.14 67.523zM305.449 105.738c-62.423 0-114.258-15.34-148.408-30.444v185.262h44.165c36.803 0 65.577 29.041 65.577 65.802v66.703c0 36.844-28.744 67.502-65.577 67.502h-44.165v107.090c43.899 33.669 94.853 50.729 146.944 50.729 62.669 0 115.845-24.699 144.763-41.452 3.564-3.645 5.878-7.332 10.793-11.039v-491.295c-51.241 20.726-102.451 31.14-154.092 31.14zM849.869 75.305c-36.649 15.104-86.067 30.444-148.49 30.444-51.671 0-105.247-10.363-154.040-31.017v495.708c24.361 15.933 83.855 47.985 155.197 47.985 52.040 0 100.905-17.060 147.272-50.729v-107.090h-26.276c-36.844 0-66.386-30.7-66.386-67.533v-66.703c0-36.741 29.553-65.802 66.386-65.802h26.276v-185.262h0.061z" />
<glyph unicode="&#xe9b4;" glyph-name="linkdin" d="M1024 337.172v-378.563h-219.443v353.311c0 88.648-31.898 149.381-111.247 149.381-60.733 0-96.645-40.776-112.589-80.23-5.765-14.182-7.096-33.7-7.096-53.627v-368.824h-219.873c0 0 3.113 598.415 0 660.49h219.873v-93.542c-0.42-0.881-1.321-1.772-1.761-2.212h1.761v2.212c28.815 44.78 81.142 109.046 197.724 109.046 144.497 0.010 252.652-94.403 252.652-297.441zM124.119 937.39c-74.895 0-124.119-49.213-124.119-114.36 0-63.386 47.882-113.92 121.457-113.92h1.331c76.687 0 124.129 50.534 124.129 113.92-1.341 65.147-47.442 114.36-122.798 114.36zM12.851-41.39h219.873v660.5h-219.873v-660.5z" />
<glyph unicode="&#xe9b5;" glyph-name="listen" d="M558.428 564.265c0 102.84-83.169 186.399-186.010 186.399s-186.409-83.558-186.409-186.399 83.558-186.020 186.409-186.020c102.84-0.010 186.010 83.18 186.010 186.020zM372.419 284.836c-124.375 0-372.419-62.372-372.419-186.020v-93h744.837v93c-0.020 123.668-248.402 186.020-372.419 186.020zM733.491 733.655l-78.275-78.653c39.322-54.825 39.322-125.901 0-181.105l78.275-78.653c94.126 94.157 94.126 236.329 0 338.412v0zM887.736 890.184l-76.001-76.001c128.942-140.278 128.942-351.631 0-499.845l76.001-76.001c181.494 181.105 181.873 463.176 0 651.848v0z" />
<glyph unicode="&#xe9b6;" glyph-name="lock-yellow" d="M930.55-6.769l-780.421 780.349-56.678-57.139 95.222-94.761c-29.020-15.432-48.507-45.814-48.507-80.712v-464.783c0-51.22 41.718-92.938 92.959-92.938h557.763c10.885 0 20.859 2.273 30.843 5.437l52.152-52.163 56.668 56.709zM367.8 726.866c0 79.34 64.84 144.2 144.2 144.2s144.21-64.86 144.21-144.2v-92.948h-253.041l480.666-480.645v387.686c0 51.231-41.718 92.948-92.959 92.948h-46.264v92.938c0 128.338-104.294 232.622-232.632 232.622-118.815 0-215.849-89.784-229.458-204.503l85.258-85.699 0.020 57.6z" />
<glyph unicode="&#xe9b7;" glyph-name="membership-association" d="M921.805 960h-819.599c-56.822 0-102.205-45.384-102.205-102.195v-563.313c0-56.812 45.384-102.595 102.195-102.595h204.8v-255.898l205.199 102.195 204.8-102.195v255.898h204.8c56.822 0 102.195 45.783 102.195 102.595v563.313c0.010 56.812-45.373 102.195-102.185 102.195v0zM921.805 294.492h-819.599v102.195h819.599v-102.195zM921.805 550.4h-819.599v307.405h819.599v-307.405z" />
<glyph unicode="&#xe9b8;" glyph-name="nominees" d="M341.412 511.836h-127.928v128.205h-85.299v-128.205h-127.949v-85.289h127.939v-127.928h85.279v127.928h127.949l0.010 85.289zM767.877 469.463c70.82 0 127.416 57.119 127.416 127.939 0 70.564-56.596 127.928-127.416 127.928-13.722 0-26.9-2.335-38.779-6.185 24.3-34.365 38.257-76.237 38.257-121.743 0-45.752-14.479-87.112-38.257-121.999 11.878-3.881 25.057-5.939 38.779-5.939zM554.639 469.463c70.82 0 127.416 57.119 127.416 127.939 0 70.564-56.596 127.928-127.416 127.928-70.81 0-127.928-57.375-127.928-127.928 0-70.82 57.119-127.939 127.928-127.939zM836.905 377.18c35.4-30.996 58.921-70.81 58.921-121.221v-85.289h127.939v85.289c0 65.925-101.069 106.23-186.86 121.221v0zM554.639 383.898c-85.289 0-255.877-42.639-255.877-127.939v-85.289h511.785v85.289c-0.031 85.299-170.609 127.939-255.908 127.939z" />
<glyph unicode="&#xe9b9;" glyph-name="official-details" d="M895.478 618.844v42.527l-127.611-85.77-128.287 85.77v-43.244l128.287-85.053 127.611 85.053v0.717zM937.994 831.498h-852.019c-46.776 0-85.76-38.287-85.76-85.064v-596.859c0-46.776 38.994-85.084 85.76-85.084h852.019c46.807 0 85.094 38.277 85.094 85.084l0.707 596.859c-0.020 46.776-39.014 85.064-85.801 85.064zM341.146 703.908c70.881 0 128.297-57.416 128.297-128.307 0-70.185-57.416-127.59-128.297-127.59-70.185 0-127.601 57.405-127.601 127.59 0 70.881 57.436 128.307 127.601 128.307zM597.074 192.123h-511.099v42.516c0 85.78 170.117 132.557 255.181 132.557 85.78 0 255.918-46.776 255.918-132.557v-42.516zM937.994 448.010h-340.92v255.898h340.92v-255.898z" />
<glyph unicode="&#xe9ba;" glyph-name="pending-icon" d="M511.488 960c-282.604 0-511.488-229.376-511.488-512.010s228.884-511.99 511.488-511.99c283.136 0 512.512 229.356 512.512 511.99-0.010 282.634-229.376 512.010-512.512 512.010v0zM512 38.4c-226.304 0-409.6 183.276-409.6 409.59s183.276 409.6 409.6 409.6c226.304 0 409.59-183.286 409.59-409.6s-183.286-409.59-409.59-409.59zM537.6 703.98h-76.8v-307.2l268.79-161.27 38.4 62.966-230.4 136.724z" />
<glyph unicode="&#xe9bb;" glyph-name="performance2" d="M529.828 326.072c23.255 0 42.127 18.944 42.127 42.26 0 23.204-18.842 42.025-42.056 42.025l-106.015 76.902-17.838-18.575 81.633-101.632 0.102-1.362c1.321-22.252 19.794-39.619 42.045-39.619zM511.959 917.955c-281.938 0-511.283-229.376-511.283-511.212 0-98.458 28.058-193.956 81.183-276.316l3.83-5.98h63.59l86.211 75.284-37.222 42.742-84.101-73.38-2.734 4.618c-41.421 70.82-63.263 151.419-63.263 233.042 0 2.345 0.133 4.618 0.41 7.557l0.307 8.581 102.4 0.102v56.709h-96.932l0.901 5.161c13.394 79.104 47.114 153.467 97.464 215.081l3.123 3.84 72.172-72.1 40.172 39.956-73.062 73.083 3.441 3.164c75.254 69.161 168.223 110.838 268.892 120.412l4.874 0.43 0.072-118.211h56.617v119.132l4.669-0.225c111.606-5.161 217.487-50.401 298.148-127.345l3.277-3.113-74.732-74.844 40.141-40.069 72.786 72.909 3.123-3.963c47.473-60.334 79.442-132.321 92.344-208.159l0.829-5.202-100.639-0.072v-56.699h106.168l0.369-9.103c0.154-2.376 0.297-4.69 0.297-7.045 0-81.295-21.668-161.516-62.648-232.059l-2.888-4.977-79.237 79.145-40.028-40.1 84.265-84.265h63.048l3.85 5.939c53.084 82.442 81.152 177.981 81.152 276.316 0 281.846-229.376 511.232-511.355 511.232zM284.099 36.639h455.772v-58.604h-455.772v58.604z" />
<glyph unicode="&#xe9bc;" glyph-name="picasa-logo" d="M302.254 224c10.988 0 651.1 0 669.624 0-78.438-162.202-236.339-271.442-413.204-287.959h-93.85c-56.105 5.233-110.531 19.753-162.57 43.121 0 7.363 0 234.189 0 244.838zM723.077 913.961c-66.775 30.392-137.81 45.998-211.098 45.998-61.010 0-121.047-11.776-178.77-33.464 13.527-12.298 372.419-338.688 389.868-354.591 0 23.501 0 334.838 0 342.057zM278.733 903.045c-171.919-88.392-278.702-262.687-278.702-456.12 0-44.052 6.625-88.832 18.627-133.253 13.896 12.657 444.928 405.043 453.806 413.164-8.653 7.885-187.924 170.926-193.731 176.21zM248.474 8.786c0 20.040 0 417.475 0 441.098-17.091-15.596-205.65-187.31-211.528-192.645 41.042-103.107 115.937-190.577 211.528-248.453zM777.073 884.562c0-20.398 0-595.589 0-606.505 10.516 0 209.725 0 217.866 0 19.036 54.589 29.010 111.452 29.010 168.878 0.010 178.278-94.587 344.719-246.876 437.627z" />
<glyph unicode="&#xe9bd;" glyph-name="position" d="M102.564 140.913v-153.129h153.938v153.129h510.996v-153.129h153.938v307.057h-818.872v-153.928zM869.857 550.359h153.938v-153.139h-153.938v153.139zM0.205 550.359h153.938v-153.139h-153.938v153.139zM767.498 397.22h-510.996v408.648c0 56.33 46.008 102.349 102.359 102.349h306.278c56.34 0 102.359-46.019 102.359-102.349v-408.648z" />
<glyph unicode="&#xe9be;" glyph-name="previous-employment" d="M409.61 243.415v50.985h-357.786l-0.748-204.759c0-56.617 45.752-102.38 102.38-102.38h716.698c57.037 0 102.4 45.763 102.4 102.38v204.759h-358.154v-50.985h-204.79zM921.539 703.959h-205.517v102.39l-102.359 102.39h-204.78l-102.021-102.39v-102.39h-204.401c-56.238 0-102.39-46.141-102.39-102.4v-153.385c0-57.006 45.373-102.369 102.39-102.369h307.159v102.369h204.78v-102.369h307.159c56.269 0 102.369 46.121 102.369 102.369v153.385c0 56.259-46.131 102.4-102.39 102.4v0zM614.4 703.959h-204.79v102.39h204.79v-102.39z" />
<glyph unicode="&#xe9bf;" glyph-name="processes" d="M870.195 857.334h-213.832c-21.381 59.412-77.814 102.779-144.364 102.779-66.54 0-122.972-43.356-144.364-102.779h-213.852c-56.443 0-102.185-45.763-102.185-102.185v-716.462c0-56.453 45.742-102.799 102.185-102.799h716.411c56.453 0 102.195 46.346 102.195 102.799v716.462c0.010 56.443-45.742 102.185-102.195 102.185zM512 857.334c27.924 0 51.087-23.183 51.087-51.087 0-27.924-23.183-51.098-51.087-51.098s-51.087 23.183-51.087 51.098c0 27.904 23.163 51.087 51.087 51.087zM614.185 140.861h-358.236v102.185h358.226v-102.185zM768.041 345.825h-512.092v102.175h512.092v-102.175zM768.041 550.185h-512.092v102.779h512.092v-102.779z" />
<glyph unicode="&#xe9c0;" glyph-name="Qualification" d="M186.552 393.196v-186.542l325.448-177.377 325.949 177.377v186.542l-325.949-177.879-325.448 177.879zM512 866.724l-511.99-279.306 511.99-279.306 418.744 228.833v-321.618h93.245v372.101l-511.99 279.296z" />
<glyph unicode="&#xe9c1;" glyph-name="read" d="M512 484.076c-117.504 109.445-275.057 176.814-448.276 176.814v-548.065c173.22 0 330.793-67.369 448.276-176.824 117.484 109.056 275.077 176.824 448.276 176.824v548.065c-173.199 0-330.793-67.348-448.276-176.814v0zM512 660.89c82.596 0 149.545 66.959 149.545 149.545 0 82.616-66.949 149.565-149.545 149.565s-149.555-66.949-149.555-149.555c0-82.596 66.959-149.555 149.555-149.555z" />
</font>
</defs>
</svg>
